<svg xmlns="http://www.w3.org/2000/svg" width="35" height="38" viewBox="0 0 47.799 41.676">
  <g id="businessman-talking-about-data-analysis" transform="translate(0 -6.955)">
    <g id="Group_7" data-name="Group 7" transform="translate(0 6.955)">
      <path id="Path_71" data-name="Path 71" d="M34.389,37.434a90.548,90.548,0,0,0-8.9-3.87,1.12,1.12,0,0,1-.588-.456,14.874,14.874,0,0,1-.6-1.695,1.18,1.18,0,0,0-.607-.89.5.5,0,0,1-.207-.394c.024-1.328-.285-2.721.7-3.88a.614.614,0,0,0,.064-.13c.532-1.162.622-2.492,1.366-3.575a.178.178,0,0,0,.027-.09c.087-.829.174-1.65.246-2.475a.387.387,0,0,0-.17-.316c-.409-.143-.387-.474-.384-.8,0-1.613,0-1.847,0-3.46a3.083,3.083,0,0,0-.983-2.409c-.808-.725-1.637-1.426-2.467-2.126-.4-.339-.436-.6-.059-.972a4.394,4.394,0,0,1,.571-.421c-.043-.064-.085-.126-.126-.19a5.13,5.13,0,0,0-.745,0c-.918.149-1.84.279-2.739.49A11.326,11.326,0,0,0,14,11.874a4.292,4.292,0,0,0-1.811,3c-.048.679-.042,1.364-.048,2.041-.005,1.11.01.84-.014,1.945-.006.18-.1.477-.231.517-.447.146-.462.432-.4.806.044.257.011.524.067.776.154.693.319,1.386.519,2.067a13.32,13.32,0,0,1,.518,1.5,5.08,5.08,0,0,0,1.241,2.708.785.785,0,0,1,.187.517c-.055.791-.137,1.587-.244,2.375a.586.586,0,0,1-.314.413c-.529.107-.609.513-.736.926-.164.542-.342,1.083-.552,1.608a.829.829,0,0,1-.391.408c-.936.406-1.892.782-2.837,1.179-1,.422-2.02.826-3,1.292-1.012.486-1.995,1.029-2.984,1.561A7.288,7.288,0,0,0,1.38,38.6L0,44.473c6.716,0,10.222,4.856,17.211,5.455l-2.575-3.553,3.993-10.922L17.394,32.8h2.474l-1.239,2.652,3.994,10.922-2.507,3.468c5.088-.852,13.209-5.368,17.149-5.368l-1.378-5.946A5.728,5.728,0,0,0,34.389,37.434Z" transform="translate(0 -8.252)" fill="#fff"/>
      <path id="Path_72" data-name="Path 72" d="M73.341,6.955A8.457,8.457,0,0,0,64.894,15.4c0,.184.007.37.02.56l-3.878,2.52a.694.694,0,0,0,.216,1.255l5.919,1.429A8.447,8.447,0,1,0,73.341,6.955Zm0,15.51a7.07,7.07,0,0,1-5.284-2.38.7.7,0,0,0-.356-.214l-4.561-1.1L66.019,16.9a.694.694,0,0,0,.311-.661,7.159,7.159,0,0,1-.051-.834,7.062,7.062,0,1,1,7.062,7.061Z" transform="translate(-33.991 -6.955)" fill="#fff"/>
      <path id="Path_73" data-name="Path 73" d="M81.883,25.6H80.71a.147.147,0,0,0-.147.147v3.91a.147.147,0,0,0,.147.146h1.173a.146.146,0,0,0,.147-.146v-3.91A.147.147,0,0,0,81.883,25.6Z" transform="translate(-45.098 -17.392)" fill="#fff"/>
      <path id="Path_74" data-name="Path 74" d="M88.795,21.936H87.622a.147.147,0,0,0-.147.147v5.523a.146.146,0,0,0,.147.146h1.173a.146.146,0,0,0,.147-.146V22.083A.148.148,0,0,0,88.795,21.936Z" transform="translate(-48.968 -15.341)" fill="#fff"/>
      <path id="Path_75" data-name="Path 75" d="M95.4,14.816H94.228a.146.146,0,0,0-.146.146V23.62a.146.146,0,0,0,.146.146H95.4a.146.146,0,0,0,.146-.146V14.962A.146.146,0,0,0,95.4,14.816Z" transform="translate(-52.666 -11.356)" fill="#fff"/>
    </g>
  </g>
</svg>
