<svg xmlns="http://www.w3.org/2000/svg" width="30" height="38" viewBox="0 0 44.379 42.004">
  <g id="contact" transform="translate(-185 -18.086)">
    <g id="Group_9" data-name="Group 9" transform="translate(185 18.086)">
      <g id="Group_8" data-name="Group 8" transform="translate(0 0)">
        <path id="Path_83" data-name="Path 83" d="M33.8,132.606l-7.481-4.987a.771.771,0,0,0-1.03.167l-2.178,2.8a2.335,2.335,0,0,1-2.992.617l-.4-.221a26.312,26.312,0,0,1-6.853-5.37,26.28,26.28,0,0,1-5.37-6.853l-.222-.4a2.334,2.334,0,0,1,.617-2.992l2.8-2.179a.77.77,0,0,0,.167-1.03l-4.987-7.482a.767.767,0,0,0-1.03-.232l-3.13,1.877a3.012,3.012,0,0,0-1.378,1.776c-1.028,3.744-.163,10.3,9.793,20.257s16.51,10.824,20.257,9.795a3.012,3.012,0,0,0,1.776-1.379l1.876-3.13A.766.766,0,0,0,33.8,132.606Z" transform="translate(0 -96.474)" fill="#fff"/>
        <path id="Path_84" data-name="Path 84" d="M134.516,13.826a.431.431,0,0,0-.31-.126H100.993a.431.431,0,0,0-.436.436v11.54l1.883,2.825a2.361,2.361,0,0,1-.513,3.161l-2.8,2.179a.756.756,0,0,0-.2.969l.228.416a19.987,19.987,0,0,0,2.645,3.856h32.407a.433.433,0,0,0,.436-.426V14.136A.431.431,0,0,0,134.516,13.826ZM111.995,28.242v0l-8.12,8.7a.793.793,0,0,1-1.16-1.081l8.12-8.7a.793.793,0,1,1,1.16,1.081Zm5.6-.625a2.627,2.627,0,0,1-1.585-.523L102.766,17.048a.794.794,0,0,1,.962-1.264l13.243,10.046a1.069,1.069,0,0,0,1.257,0l13.247-10.046a.793.793,0,0,1,.958,1.264L119.185,27.094A2.627,2.627,0,0,1,117.6,27.617Zm14.9,9.359a.793.793,0,0,1-1.121-.039l-8.119-8.7a.793.793,0,0,1,1.161-1.077l8.118,8.7A.793.793,0,0,1,132.5,36.976Z" transform="translate(-90.263 -13.7)" fill="#fff"/>
      </g>
    </g>
  </g>
</svg>
