<svg xmlns="http://www.w3.org/2000/svg" width="30" height="38" viewBox="0 0 38.906 37.666">
  <g id="home" transform="translate(0 -4.89)">
    <path id="Path_76" data-name="Path 76" d="M38.419,23.267a1.855,1.855,0,0,0-.152-2.655L20.879,5.4a2.167,2.167,0,0,0-2.827.033L.6,21.424a1.844,1.844,0,0,0-.084,2.651l.437.456a1.908,1.908,0,0,0,2.618.2l1.3-1.168V40.658a1.9,1.9,0,0,0,1.9,1.9h6.8a1.9,1.9,0,0,0,1.9-1.9V28.7h8.675v11.96a1.794,1.794,0,0,0,1.783,1.9h7.207a1.9,1.9,0,0,0,1.9-1.9V23.8l.8.706c.444.39,1.375.077,2.08-.7Z" transform="translate(0 0)" fill="#fff"/>
  </g>
</svg>
