<svg xmlns="http://www.w3.org/2000/svg" xmlns:xlink="http://www.w3.org/1999/xlink" width="732.808" height="626.906" viewBox="0 0 732.808 626.906">
  <defs>
    <linearGradient id="linear-gradient" x1="-0.36" y1="1.999" x2="0.909" y2="0.014" gradientUnits="objectBoundingBox">
      <stop offset="0.01"/>
      <stop offset="0.13" stop-opacity="0.69"/>
      <stop offset="0.25" stop-opacity="0.322"/>
      <stop offset="1" stop-opacity="0"/>
    </linearGradient>
  </defs>
  <g id="nwanochie-cpu" transform="translate(0 -0.003)">
    <path id="Path_166" data-name="Path 166" d="M544.057,89.773c65.306,44.739,109.522,116.146,151.819,185.414,17.252,28.271,34.582,56.706,47.337,87.546,13.046,31.581,21.09,65.341,25.7,99.492,6.881,50.949,3.237,110.1-33.865,143.285-19.481,17.415-45.2,24.672-70.269,29.422-99.636,19.039-202.3,7.361-302.844,19.738-55.013,6.785-109.735,20.786-165.059,17.7s-113.67-27.222-141.2-78.129c-32.12-59.481-13.22-135.308,16.322-196.27s69.513-118.51,79.922-186.154c4.284-27.777,3.664-57.446,16.612-81.995,14.48-27.489,43.034-42.889,70.889-53.765C334.937,38.68,454.694,28.482,544.057,89.773Z" transform="translate(-38.94 -45.9)" fill="#283131" opacity="0.18"/>
    <path id="Path_167" data-name="Path 167" d="M236.515,190.3c-7.385,7.854-16.69,13.3-25.859,18.628l-44.584,26.009A10.316,10.316,0,0,1,161.4,236.7a9.969,9.969,0,0,1-5.079-1.748A543.5,543.5,0,0,1,87.1,188.836c5.079-4.791,10.545-9.787,17.272-10.959a35.782,35.782,0,0,1,11.069.473,400.748,400.748,0,0,0,81.55,3.207,112.483,112.483,0,0,0,12.871-1.357c3.276-.6,8.045-3.125,11.321-2.488C223.76,178.227,235.7,191.159,236.515,190.3Z" transform="translate(402.936 93.188)" fill="#283131" opacity="0.18"/>
    <path id="Path_168" data-name="Path 168" d="M411.457,264.44c-12.193,12.953-27.545,21.938-42.646,30.841l-73.661,42.889a17.118,17.118,0,0,1-7.754,2.94,16.881,16.881,0,0,1-8.413-2.9A901.14,901.14,0,0,1,164.79,262.137c8.374-7.916,17.446-16.16,28.476-18.072a58.9,58.9,0,0,1,18.3.761,661.941,661.941,0,0,0,134.547,5.3,188.607,188.607,0,0,0,21.226-2.262c5.389-.966,13.278-5.161,18.667-4.112C390.406,244.537,410.12,265.858,411.457,264.44Z" transform="translate(77.396 162.864)" fill="#283131" opacity="0.18"/>
    <path id="Path_169" data-name="Path 169" d="M433.138,196.866c-6.823,7.237-15.391,12.336-23.823,17.188l-41.1,23.932a7.035,7.035,0,0,1-8.994,0,502.419,502.419,0,0,1-63.775-42.5c4.691-4.42,9.692-9.005,15.915-10.1a33.477,33.477,0,0,1,10.216.432,368.819,368.819,0,0,0,75.134,2.961,104.272,104.272,0,0,0,11.844-1.254c3-.555,7.424-2.878,10.429-2.282C421.372,185.764,432.382,197.668,433.138,196.866Z" transform="translate(-197.562 101.153)" fill="#283131" opacity="0.18"/>
    <path id="Path_170" data-name="Path 170" d="M421.338,317.006c-6.8,7.217-15.391,12.336-23.824,17.168l-41.1,23.953a9.778,9.778,0,0,1-4.3,1.645,9.5,9.5,0,0,1-4.691-1.624,504.464,504.464,0,0,1-63.775-42.478c4.691-4.42,9.692-9.026,15.915-10.1a32.234,32.234,0,0,1,10.216.432,370.307,370.307,0,0,0,75.134,2.961,99.819,99.819,0,0,0,11.844-1.275c3-.535,7.424-2.878,10.429-2.282C409.572,305.8,420.659,317.7,421.338,317.006Z" transform="translate(-162.888 228.047)" fill="#283131" opacity="0.18"/>
    <path id="Path_171" data-name="Path 171" d="M212.978,315.306c-6.823,7.237-15.391,12.336-23.843,17.188l-41.076,23.932a7.035,7.035,0,0,1-8.994,0,502.419,502.419,0,0,1-63.775-42.5c4.691-4.421,9.692-9.005,15.915-10.1a33.481,33.481,0,0,1,10.216.432,368.823,368.823,0,0,0,75.134,2.961,104.237,104.237,0,0,0,11.844-1.254c3-.555,7.4-2.878,10.429-2.282C201.211,304.2,212.222,316.108,212.978,315.306Z" transform="translate(449.366 226.23)" fill="#283131" opacity="0.18"/>
    <path id="Path_172" data-name="Path 172" d="M240.011,303.522,351.84,235.035V216.366L240.709,166.98,128.88,216.8v18.669Z" transform="translate(131.14 176.334)" fill="#283131"/>
    <path id="Path_173" data-name="Path 173" d="M240.011,294.441,351.84,225.955,240.709,157.9,128.88,226.387Z" transform="translate(131.14 166.745)" fill="#fff"/>
    <path id="Path_174" data-name="Path 174" d="M226.782,268.964l84.264-51.607L227.324,166.08,143.06,217.687Z" transform="translate(144.447 175.384)" fill="#283131"/>
    <path id="Path_175" data-name="Path 175" d="M220.186,256.225l70.463-43.156L220.612,170.18,150.15,213.336Z" transform="translate(151.1 179.713)" fill="#fff"/>
    <path id="Path_176" data-name="Path 176" d="M223.774,272.38l74.514-22.616a21.994,21.994,0,0,0-5.621-4.112l-59.181-33.8a3.854,3.854,0,0,0-3.072-.938,3.98,3.98,0,0,0-2.743,1.74l-46.91,44.472a7.856,7.856,0,0,0-2.927,4.5,5.3,5.3,0,0,0,3.1,5.058,12.853,12.853,0,0,0,5.97.843,84.964,84.964,0,0,0,15.76-2.056,19.416,19.416,0,0,1,6.746-.8,6.008,6.008,0,0,1,5.156,4.112" transform="translate(165.288 128.318)" fill="url(#linear-gradient)"/>
    <path id="Path_177" data-name="Path 177" d="M250.346,238.226a19.125,19.125,0,0,1-1.338,7.648,12.2,12.2,0,0,1-5.253,5.14,19.512,19.512,0,0,1-15.294,1.6,2.846,2.846,0,0,1-1.764-1.131,2.679,2.679,0,0,1-.31-1.6,12.124,12.124,0,0,1,4.013-7.628,26.337,26.337,0,0,0,5.505-6.723c2.346-5.017.6-18.4,9.518-16.243C252.885,221,250.559,232.634,250.346,238.226Z" transform="translate(118.634 136.957)" fill="#ffbbab"/>
    <path id="Path_178" data-name="Path 178" d="M257.091,232.97s1.26,3.31-.291,5.243-17.582,12.521-28.379,4.009,14.635-9.622,14.635-9.622Z" transform="translate(113.11 151.259)" fill="#283131"/>
    <path id="Path_179" data-name="Path 179" d="M255.7,229.591a2.211,2.211,0,0,0-2.888.8,9.123,9.123,0,0,1-8.587,3.249c-3.528-.884-4.924-5.181-6.688-5.2s-11.069,8.409-11.631,12.028,4.226,6.168,9.5,6.62,17.213-3.516,19.384-6.456a12.6,12.6,0,0,0,.911-11.041Z" transform="translate(113.897 146.866)" fill="#fff"/>
    <path id="Path_180" data-name="Path 180" d="M234.556,240.756a19.126,19.126,0,0,1-1.338,7.648,12.2,12.2,0,0,1-5.253,5.14,19.494,19.494,0,0,1-15.294,1.6,2.846,2.846,0,0,1-1.764-1.131,2.679,2.679,0,0,1-.31-1.6,12.124,12.124,0,0,1,4.013-7.628,26.339,26.339,0,0,0,5.505-6.723c2.346-5.017.6-18.5,9.518-16.243C237.095,223.609,234.769,235.164,234.556,240.756Z" transform="translate(165.032 139.608)" fill="#ffbbab"/>
    <path id="Path_181" data-name="Path 181" d="M241.291,235.437s1.26,3.31-.291,5.243-17.582,12.521-28.379,4.112,14.635-9.622,14.635-9.622Z" transform="translate(159.537 153.973)" fill="#283131"/>
    <path id="Path_182" data-name="Path 182" d="M239.852,232.1a2.217,2.217,0,0,0-2.869.9,9.123,9.123,0,0,1-8.587,3.249c-3.528-.884-4.924-5.181-6.688-5.2s-11.069,8.409-11.631,12.028,4.226,6.271,9.5,6.62,17.213-3.516,19.481-6.456A12.534,12.534,0,0,0,239.852,232.1Z" transform="translate(160.356 149.622)" fill="#fff"/>
    <path id="Path_183" data-name="Path 183" d="M241.738,163.543s1.667,97.251-5.137,129.695l-17.233,2.241L207.447,162.33Z" transform="translate(164.247 77.051)" fill="#473f47"/>
    <path id="Path_184" data-name="Path 184" d="M222.218,157.75s-8.122,52.47,1.725,136.706l17.233,2.262L253.1,163.569Z" transform="translate(130.537 72.215)" fill="#473f47"/>
    <path id="Path_185" data-name="Path 185" d="M231.1,158.795c.194,3.516,1.279,6.579,4.148,7.587a3.034,3.034,0,0,0,.737.206c5.292,1.131,12.232-3.146,17.078-6.867a66.115,66.115,0,0,0,5.815-5V117.16l-25.743,27.962A46.234,46.234,0,0,0,231.1,158.795Z" transform="translate(101.437 29.35)" fill="#fff"/>
    <path id="Path_186" data-name="Path 186" d="M205.084,165.018c0,1.748-.213,3.536-.213,5.3,0,9.7,2.113,19.717-.6,29.237a11.172,11.172,0,0,0-.775,6.5,7.97,7.97,0,0,0,3.877,3.906c8.064,4.667,17.446,6.168,26.479,7.463,6.843,1.007,16.554,3.166,22.893-.74,2.694-1.665,3.605-4.77,4.458-7.875,2.753-9.828,3.547-20.416,4.284-30.614,0-1.336.174-2.673.252-4.112q.775-13.94.523-27.88c-.116-6.764-.62-14.043-4.769-19.142-5.525-6.785-16.225-11.267-24.328-12.85a26.24,26.24,0,0,0-8.006-.473,32.611,32.611,0,0,0-10.817,3.906c-4.032,2.056-7.618,3.886-9.6,8.121a59.906,59.906,0,0,0-4.5,15.379A58.693,58.693,0,0,0,204,156.238c.233,2.467.834,4.914,1.066,7.361C205.065,164.134,205.084,164.565,205.084,165.018Z" transform="translate(147.845 25.615)" fill="#fff"/>
    <path id="Path_187" data-name="Path 187" d="M228.317,216.294a7.621,7.621,0,0,0,3.16.267c2.539-.144,5-1.6,7.482-2.056,1.221-.247,2.326-.884,3.528-1.193,6.067-1.6,6.785-19.656,7.385-24.508,1.57-12.85,3.877-26.153,4.129-39.065a46.2,46.2,0,0,0-1.609-14.721,16.712,16.712,0,0,0-9.091-10.712,4.316,4.316,0,0,0-2.675-.308c-3.547.966-3.431,5.263-4.614,8.1-1.357,3.187-5.176,5.777-8.665,4.112s-3.993-7.032-5.331-11.1a12.71,12.71,0,0,0-5.447-7.155c-6.339-3.578-11.282,1.912-13.414,7.875s.194,13.775,1.318,20.17c2.811,15.831,6.746,31.7,14.422,45.726,3.1,5.675,9.033,12.46,8.994,19.1C227.891,214.053,227.038,215.7,228.317,216.294Z" transform="translate(162.102 28.988)" fill="#020202" opacity="0.1"/>
    <path id="Path_188" data-name="Path 188" d="M218.56,127.32a5.623,5.623,0,0,0,4.109.72,18.253,18.253,0,0,0,3.45-1.069c1.8-.678,1.454,1.85,1.551,3.351a29.427,29.427,0,0,1-.213,5.7,5.009,5.009,0,0,0,0,2.056,2.885,2.885,0,0,0,2.074,2.056,5.9,5.9,0,0,0,2.869,0,17.081,17.081,0,0,0,3.16-.966,4.99,4.99,0,0,0,2.229-1.563,6.484,6.484,0,0,0,.717-3.948c-.31-9.807.33-20.766-3.431-29.977a9,9,0,0,0-4.846-5.694,8.2,8.2,0,0,0-7.23.2,19.414,19.414,0,0,0-9.363,6.353,4.644,4.644,0,0,0-.582,3.7q.31,3.351.93,6.662c.465,2.488,1.027,4.976,1.706,7.422a8.755,8.755,0,0,0,2.869,5Z" transform="translate(157.03 8.314)" fill="#ffbbab"/>
    <path id="Path_189" data-name="Path 189" d="M218.385,110.3a8.244,8.244,0,0,0,1.4,0,20.99,20.99,0,0,1,6.707-1.275,8.366,8.366,0,0,1,6.591,8.615c1.086,0,.717-1.871,1.241-2.9s2.559-.535,3.043.72a8.707,8.707,0,0,1,0,4.112,11.938,11.938,0,0,0,1.667,7.422c.33.514.911,1.069,1.4.74s.6-1.419.795-2.056a17.048,17.048,0,0,1,1.182-2.406c.853-1.5,1.938-2.92,2.791-4.4,1.59-2.632,2.85-5.9,1.938-8.862a6.959,6.959,0,0,0-2.113-3.043c-.95-.8-2.229-.9-3.16-1.6s-.5-1.336-.814-2.241a16.786,16.786,0,0,0-5.214-6.435,17.182,17.182,0,0,0-13.569-4.647,13.238,13.238,0,0,0-10.235,11.02,5.906,5.906,0,0,0-2.636,5.449,8.4,8.4,0,0,0,.446,2.858,5.563,5.563,0,0,0,5.311,3.68,9.729,9.729,0,0,1-.252-3.434,1.825,1.825,0,0,1,.213-.72C215.438,110.234,217.144,110.275,218.385,110.3Z" transform="translate(154.995 2.722)" fill="#473f47"/>
    <path id="Path_190" data-name="Path 190" d="M215.58,114.315l.64-.247a.679.679,0,0,1,.485,0c.194,0,.291.288.368.473a11.088,11.088,0,0,1,.659,4.852l-.252,2.57s7.928-4.112,5.176-12.6a39.457,39.457,0,0,1-7.037,4.976Z" transform="translate(167.162 21.113)" fill="#e0a194"/>
    <path id="Path_191" data-name="Path 191" d="M240.586,137.318a52.357,52.357,0,0,0,12.367,13.056,23.649,23.649,0,0,0,11.631,4.421,3.667,3.667,0,0,0,1.628-.185,4.389,4.389,0,0,0,2.229-1.645,14.153,14.153,0,0,0,2.985-7.792c.291-7.484-7.366-11.822-7.366-11.822s-17.446-5.9-19.384-4.934c-1.144.514-2.21,3.125-2.946,5.366A32.312,32.312,0,0,0,240.586,137.318Z" transform="translate(70.492 41.123)" fill="#fff"/>
    <path id="Path_192" data-name="Path 192" d="M271.476,150.236l-10.2-34.007a5.056,5.056,0,0,0-5.176-3.721l-8.122.637a5.025,5.025,0,0,0-3.915,2.508,5.651,5.651,0,0,0-.408,4.832l12.755,33.678a5.013,5.013,0,0,0,4.924,3.331l5.583-.288a5,5,0,0,0,3.887-2.3A5.64,5.64,0,0,0,271.476,150.236Z" transform="translate(64.957 24.422)" fill="#283131"/>
    <path id="Path_193" data-name="Path 193" d="M205.406,181.692h0c6.8,2.552,14.27-1.219,16.69-8.43l11.844-35.4c2.406-7.216-1.149-15.136-7.948-17.7h0c-6.8-2.549-7.967,2.056-10.371,9.191l-10.235,32.362C202.963,168.883,198.6,179.122,205.406,181.692Z" transform="translate(182.493 31.763)" fill="#fff"/>
    <path id="Path_194" data-name="Path 194" d="M234.09,134.464a52.356,52.356,0,0,0,12.367,13.056,23.649,23.649,0,0,0,11.631,4.421,3.667,3.667,0,0,0,1.628-.185,3.034,3.034,0,0,0,.737.206c5.292,1.131,12.232-3.146,17.078-6.867v-.123l-1.648-11.226a41.9,41.9,0,0,1-10.913,8.574,14.9,14.9,0,0,1-9.363,1.85,8.736,8.736,0,0,1-2.5-.822,80.592,80.592,0,0,1-17.931-12.336A35.071,35.071,0,0,0,234.09,134.464Z" transform="translate(76.988 43.976)" fill="#020202" opacity="0.1"/>
    <path id="Path_195" data-name="Path 195" d="M231.6,113.355c-.252-1.09-.737-2.385-1.783-2.611-1.376-.267-2.4,1.521-3.877,1.665-.737,0-1.531-.308-2.21,0a2.628,2.628,0,0,0-.853.781,13.752,13.752,0,0,0-2.345,10.649,13.114,13.114,0,0,0,6.066,8.842,4.88,4.88,0,0,0,2.927.843,6.4,6.4,0,0,0,2.636-1.193c2.617-1.727,1.376-4.667,1.1-7.381a95.262,95.262,0,0,0-1.667-11.6Z" transform="translate(147.479 22.546)" fill="#ffbbab"/>
    <path id="Path_196" data-name="Path 196" d="M230.984,183.092c3.528.761,16.651-4.215,6.455-29.586-4.652-11.617-7.056-22.616-13.22-33.452a3.562,3.562,0,0,0-1.434-1.624,3.116,3.116,0,0,0-1.938,0,64.053,64.053,0,0,0-8.684,2.179,1.784,1.784,0,0,0-1.066.658,2.167,2.167,0,0,0-.174,1.234c.756,10.486,4.613,20.416,6.184,30.841,1.008,6.764,1.124,13.9,4.206,19.923C222.377,175.279,228.793,182.619,230.984,183.092Z" transform="translate(158.233 30.527)" fill="#fff"/>
    <path id="Path_197" data-name="Path 197" d="M253.917,125.042a6.327,6.327,0,0,1,6.959-.966,10.158,10.158,0,0,1,4.672,8.224,12.985,12.985,0,0,1-1.26,7.5,8.65,8.65,0,0,1-10.836,3.948,9.141,9.141,0,0,1-4.769-9.519,11.378,11.378,0,0,1,1.938-3.619,22.01,22.01,0,0,1,3.3-5.572Z" transform="translate(60.767 35.984)" fill="#ffbbab"/>
    <path id="Path_198" data-name="Path 198" d="M185.43,265.857h.426a2.245,2.245,0,0,0,1.438-1.006,2.5,2.5,0,0,0,.345-1.79,24.278,24.278,0,0,0-14.112-17.168,2.13,2.13,0,0,0-1.732.006,2.325,2.325,0,0,0-1.214,1.31,2.457,2.457,0,0,0,1.26,3.125A19.563,19.563,0,0,1,183.2,263.966,2.321,2.321,0,0,0,185.43,265.857Z" transform="translate(290.261 165.106)" fill="#fff"/>
    <path id="Path_199" data-name="Path 199" d="M194.7,271.544a1.5,1.5,0,0,0,.426,0,2.4,2.4,0,0,0,1.8-2.8A24.379,24.379,0,0,0,182.8,251.559a2.162,2.162,0,0,0-2.308.281,2.478,2.478,0,0,0-.865,2.287,2.375,2.375,0,0,0,1.486,1.894,19.5,19.5,0,0,1,11.359,13.632A2.321,2.321,0,0,0,194.7,271.544Z" transform="translate(263.174 171.056)" fill="#fff"/>
    <path id="Path_200" data-name="Path 200" d="M203.83,277.195h.426a2.4,2.4,0,0,0,1.8-2.8,24.4,24.4,0,0,0-14.112-17.188A2.225,2.225,0,0,0,189,258.526a2.519,2.519,0,0,0,.005,1.837,2.318,2.318,0,0,0,1.235,1.288A19.543,19.543,0,0,1,201.6,275.283,2.323,2.323,0,0,0,203.83,277.195Z" transform="translate(236.154 177.063)" fill="#fff"/>
    <path id="Path_201" data-name="Path 201" d="M212.815,282.832h.426a2.4,2.4,0,0,0,1.8-2.8,24.28,24.28,0,0,0-14.112-17.188,2.233,2.233,0,0,0-2.784,1.386,2.47,2.47,0,0,0,1.078,3.055,19.561,19.561,0,0,1,11.379,13.632,2.285,2.285,0,0,0,2.21,1.912Z" transform="translate(209.433 183.083)" fill="#fff"/>
    <path id="Path_202" data-name="Path 202" d="M222.175,288.526a1.645,1.645,0,0,0,.446,0,2.245,2.245,0,0,0,1.438-1.006,2.5,2.5,0,0,0,.345-1.79,24.28,24.28,0,0,0-14.112-17.188,2.227,2.227,0,0,0-2.956,1.326,2.459,2.459,0,0,0,1.25,3.135,19.56,19.56,0,0,1,11.379,13.632,2.284,2.284,0,0,0,2.21,1.892Z" transform="translate(182.259 189.027)" fill="#fff"/>
    <path id="Path_203" data-name="Path 203" d="M273.067,265.843a1.5,1.5,0,0,1-.427,0,2.4,2.4,0,0,1-1.8-2.8,24.275,24.275,0,0,1,14.131-17.168,2.216,2.216,0,0,1,2.937,1.326,2.445,2.445,0,0,1-1.25,3.115A19.5,19.5,0,0,0,275.3,263.952a2.3,2.3,0,0,1-2.229,1.891Z" transform="translate(-4.712 165.099)" fill="#fff"/>
    <path id="Path_204" data-name="Path 204" d="M263.879,271.523a1.427,1.427,0,0,1-.427,0,2.4,2.4,0,0,1-1.8-2.8,24.28,24.28,0,0,1,14.112-17.188,2.227,2.227,0,0,1,2.946,1.336,2.519,2.519,0,0,1-.005,1.837A2.318,2.318,0,0,1,277.467,256a19.56,19.56,0,0,0-11.379,13.632,2.3,2.3,0,0,1-2.21,1.891Z" transform="translate(22.291 171.077)" fill="#fff"/>
    <path id="Path_205" data-name="Path 205" d="M254.747,277.184h-.426a2.243,2.243,0,0,1-1.451-1,2.5,2.5,0,0,1-.352-1.8,24.277,24.277,0,0,1,14.17-17.23,2.233,2.233,0,0,1,2.784,1.386,2.47,2.47,0,0,1-1.078,3.055,19.6,19.6,0,0,0-11.379,13.632,2.3,2.3,0,0,1-2.268,1.953Z" transform="translate(49.237 177.074)" fill="#fff"/>
    <path id="Path_206" data-name="Path 206" d="M245.5,282.868h-.426a2.4,2.4,0,0,1-1.783-2.8A24.28,24.28,0,0,1,257.4,262.883a2.13,2.13,0,0,1,1.732.006,2.324,2.324,0,0,1,1.214,1.31,2.458,2.458,0,0,1-1.241,3.125,19.561,19.561,0,0,0-11.379,13.632,2.323,2.323,0,0,1-2.229,1.912Z" transform="translate(76.237 183.048)" fill="#fff"/>
    <path id="Path_207" data-name="Path 207" d="M236.342,288.505a1.568,1.568,0,0,1-.426,0,2.245,2.245,0,0,1-1.438-1.006,2.5,2.5,0,0,1-.345-1.79,24.28,24.28,0,0,1,14.112-17.188,2.231,2.231,0,0,1,2.859,1.373,2.463,2.463,0,0,1-1.173,3.088,19.563,19.563,0,0,0-11.359,13.632,2.3,2.3,0,0,1-2.229,1.891Z" transform="translate(103.251 189.048)" fill="#fff"/>
    <path id="Path_208" data-name="Path 208" d="M309.709,316.546l60.867-37.276V269.092l-60.5-26.872L249.21,269.339V279.5Z" transform="translate(-120.85 255.791)" fill="#283131"/>
    <path id="Path_209" data-name="Path 209" d="M309.709,311.616l60.867-37.3-60.5-37.05-60.867,37.3Z" transform="translate(-120.85 250.563)" fill="#fff"/>
    <path id="Path_210" data-name="Path 210" d="M302.522,297.736l45.864-28.086L302.813,241.73,256.93,269.815Z" transform="translate(-113.624 255.273)" fill="#283131"/>
    <path id="Path_211" data-name="Path 211" d="M298.909,290.8l38.381-23.5L299.161,243.96,260.78,267.44Z" transform="translate(-109.992 257.628)" fill="#9f3d3d"/>
    <path id="Path_212" data-name="Path 212" d="M297.777,316.954h.252a1.314,1.314,0,0,0,.969-1.521,13.2,13.2,0,0,0-7.754-9.355,1.157,1.157,0,0,0-.935.01,1.263,1.263,0,0,0-.654.709,1.368,1.368,0,0,0,0,1,1.258,1.258,0,0,0,.678.7,10.61,10.61,0,0,1,6.184,7.422A1.256,1.256,0,0,0,297.777,316.954Z" transform="translate(-52.024 228.756)" fill="#fff"/>
    <path id="Path_213" data-name="Path 213" d="M302.787,320.042h.233a1.216,1.216,0,0,0,.8-.541,1.359,1.359,0,0,0,.194-.981,13.283,13.283,0,0,0-7.754-9.355,1.236,1.236,0,0,0-1.609.72,1.343,1.343,0,0,0,.7,1.706,10.671,10.671,0,0,1,6.184,7.422A1.256,1.256,0,0,0,302.787,320.042Z" transform="translate(-66.726 232.022)" fill="#fff"/>
    <path id="Path_214" data-name="Path 214" d="M307.813,323.128h.233a1.219,1.219,0,0,0,.783-.547,1.36,1.36,0,0,0,.187-.974,13.141,13.141,0,0,0-7.754-9.355,1.157,1.157,0,0,0-.947,0,1.263,1.263,0,0,0-.662.719,1.366,1.366,0,0,0,.678,1.706,10.628,10.628,0,0,1,6.2,7.422A1.235,1.235,0,0,0,307.813,323.128Z" transform="translate(-81.445 235.268)" fill="#fff"/>
    <path id="Path_215" data-name="Path 215" d="M312.712,326.194h.233a1.2,1.2,0,0,0,.79-.542,1.339,1.339,0,0,0,.18-.979,13.243,13.243,0,0,0-7.754-9.355,1.222,1.222,0,0,0-1.5.766,1.353,1.353,0,0,0,.572,1.66,10.61,10.61,0,0,1,6.184,7.422A1.253,1.253,0,0,0,312.712,326.194Z" transform="translate(-96.036 238.555)" fill="#fff"/>
    <path id="Path_216" data-name="Path 216" d="M317.714,329.275h.233a1.219,1.219,0,0,0,.783-.547,1.359,1.359,0,0,0,.186-.974,13.2,13.2,0,0,0-7.754-9.355,1.222,1.222,0,0,0-1.5.766,1.353,1.353,0,0,0,.572,1.661,10.631,10.631,0,0,1,6.184,7.422A1.253,1.253,0,0,0,317.714,329.275Z" transform="translate(-110.731 241.808)" fill="#fff"/>
    <path id="Path_217" data-name="Path 217" d="M345.489,316.928h-.233a1.313,1.313,0,0,1-.989-1.521,13.243,13.243,0,0,1,7.754-9.355,1.225,1.225,0,0,1,1.465.786,1.354,1.354,0,0,1-.554,1.64,10.61,10.61,0,0,0-6.184,7.422,1.256,1.256,0,0,1-1.26,1.028Z" transform="translate(-212.593 228.782)" fill="#fff"/>
    <path id="Path_218" data-name="Path 218" d="M340.471,320.024h-.233a1.217,1.217,0,0,1-.8-.541,1.359,1.359,0,0,1-.194-.981A13.283,13.283,0,0,1,347,309.148a1.222,1.222,0,0,1,1.5.766,1.353,1.353,0,0,1-.572,1.66,10.669,10.669,0,0,0-6.2,7.422,1.256,1.256,0,0,1-1.26,1.028Z" transform="translate(-197.883 232.039)" fill="#fff"/>
    <path id="Path_219" data-name="Path 219" d="M335.391,323.128h-.233a1.22,1.22,0,0,1-.783-.547,1.359,1.359,0,0,1-.186-.974,13.141,13.141,0,0,1,7.754-9.355,1.157,1.157,0,0,1,.947,0,1.263,1.263,0,0,1,.662.719,1.366,1.366,0,0,1-.678,1.706,10.628,10.628,0,0,0-6.2,7.422A1.235,1.235,0,0,1,335.391,323.128Z" transform="translate(-183.111 235.268)" fill="#fff"/>
    <path id="Path_220" data-name="Path 220" d="M330.446,326.194h-.233a1.2,1.2,0,0,1-.79-.542,1.337,1.337,0,0,1-.18-.979A13.243,13.243,0,0,1,337,315.318a1.223,1.223,0,0,1,1.5.766,1.353,1.353,0,0,1-.572,1.661,10.61,10.61,0,0,0-6.184,7.422A1.253,1.253,0,0,1,330.446,326.194Z" transform="translate(-168.473 238.555)" fill="#fff"/>
    <path id="Path_221" data-name="Path 221" d="M325.324,329.324h-.233a1.315,1.315,0,0,1-.969-1.521,13.2,13.2,0,0,1,7.754-9.355,1.182,1.182,0,0,1,1.306.1,1.354,1.354,0,0,1,.493,1.287,1.292,1.292,0,0,1-.869,1.039,10.631,10.631,0,0,0-6.184,7.422A1.253,1.253,0,0,1,325.324,329.324Z" transform="translate(-153.659 241.758)" fill="#fff"/>
    <path id="Path_222" data-name="Path 222" d="M116.118,188.426l60.867-37.276V140.993l-60.5-26.893L55.6,141.219V151.4Z" transform="translate(448.044 120.491)" fill="#283131"/>
    <path id="Path_223" data-name="Path 223" d="M116.118,183.486l60.867-37.276-60.5-37.05L55.6,146.436Z" transform="translate(448.044 115.274)" fill="#fff"/>
    <path id="Path_224" data-name="Path 224" d="M108.912,169.616l45.864-28.085L109.2,113.61,63.32,141.716Z" transform="translate(455.288 119.973)" fill="#283131"/>
    <path id="Path_225" data-name="Path 225" d="M105.3,162.7l38.381-23.5L105.551,115.84l-38.381,23.5Z" transform="translate(458.921 122.328)" fill="#2c8284"/>
    <path id="Path_226" data-name="Path 226" d="M104.166,188.845h.233a1.217,1.217,0,0,0,.8-.541,1.359,1.359,0,0,0,.194-.981,13.283,13.283,0,0,0-7.754-9.355,1.157,1.157,0,0,0-.935.01,1.263,1.263,0,0,0-.654.709,1.368,1.368,0,0,0,0,1,1.258,1.258,0,0,0,.678.7,10.671,10.671,0,0,1,6.184,7.422,1.275,1.275,0,0,0,1.26,1.028Z" transform="translate(516.889 93.467)" fill="#fff"/>
    <path id="Path_227" data-name="Path 227" d="M109.175,191.925h.233a1.313,1.313,0,0,0,.989-1.521,13.243,13.243,0,0,0-7.754-9.355,1.217,1.217,0,0,0-1.609.72,1.366,1.366,0,0,0,.678,1.706,10.587,10.587,0,0,1,6.2,7.422A1.236,1.236,0,0,0,109.175,191.925Z" transform="translate(502.188 96.719)" fill="#fff"/>
    <path id="Path_228" data-name="Path 228" d="M114.326,195.044h.233a1.2,1.2,0,0,0,.79-.542,1.338,1.338,0,0,0,.18-.979,13.243,13.243,0,0,0-7.754-9.355,1.182,1.182,0,0,0-1.307.1,1.354,1.354,0,0,0-.494,1.287,1.292,1.292,0,0,0,.87,1.039,10.668,10.668,0,0,1,6.2,7.422,1.235,1.235,0,0,0,1.279,1.028Z" transform="translate(487.344 99.953)" fill="#fff"/>
    <path id="Path_229" data-name="Path 229" d="M119.328,198.124h.233a1.219,1.219,0,0,0,.783-.547,1.36,1.36,0,0,0,.187-.974,13.2,13.2,0,0,0-7.754-9.355,1.182,1.182,0,0,0-1.306.1,1.354,1.354,0,0,0-.494,1.287,1.292,1.292,0,0,0,.869,1.039,10.61,10.61,0,0,1,6.184,7.422A1.253,1.253,0,0,0,119.328,198.124Z" transform="translate(472.651 103.206)" fill="#fff"/>
    <path id="Path_230" data-name="Path 230" d="M124.044,201.158h.252a1.219,1.219,0,0,0,.783-.547,1.36,1.36,0,0,0,.187-.974,13.283,13.283,0,0,0-7.754-9.355,1.225,1.225,0,0,0-1.465.786,1.354,1.354,0,0,0,.554,1.64,10.671,10.671,0,0,1,6.184,7.422,1.275,1.275,0,0,0,1.26,1.028Z" transform="translate(458.223 106.525)" fill="#fff"/>
    <path id="Path_231" data-name="Path 231" d="M151.867,188.808h-.233a1.2,1.2,0,0,1-.79-.542,1.338,1.338,0,0,1-.18-.979,13.223,13.223,0,0,1,7.754-9.355,1.225,1.225,0,0,1,1.465.786,1.354,1.354,0,0,1-.554,1.64,10.671,10.671,0,0,0-6.184,7.422A1.254,1.254,0,0,1,151.867,188.808Z" transform="translate(356.313 93.483)" fill="#fff"/>
    <path id="Path_232" data-name="Path 232" d="M146.879,191.9h-.233a1.312,1.312,0,0,1-.989-1.521,13.243,13.243,0,0,1,7.754-9.355,1.225,1.225,0,0,1,1.465.786,1.354,1.354,0,0,1-.554,1.64,10.611,10.611,0,0,0-6.184,7.422A1.256,1.256,0,0,1,146.879,191.9Z" transform="translate(371.012 96.746)" fill="#fff"/>
    <path id="Path_233" data-name="Path 233" d="M141.742,195.044h-.233a1.313,1.313,0,0,1-.989-1.521,13.283,13.283,0,0,1,7.754-9.355,1.182,1.182,0,0,1,1.307.1,1.354,1.354,0,0,1,.494,1.287,1.292,1.292,0,0,1-.87,1.039,10.668,10.668,0,0,0-6.2,7.422A1.256,1.256,0,0,1,141.742,195.044Z" transform="translate(385.841 99.953)" fill="#fff"/>
    <path id="Path_234" data-name="Path 234" d="M136.779,198.1h-.233a1.219,1.219,0,0,1-.783-.547,1.36,1.36,0,0,1-.186-.974,13.2,13.2,0,0,1,7.754-9.355,1.157,1.157,0,0,1,.947,0,1.263,1.263,0,0,1,.662.719,1.345,1.345,0,0,1-.678,1.706,10.55,10.55,0,0,0-6.184,7.422A1.253,1.253,0,0,1,136.779,198.1Z" transform="translate(400.497 103.232)" fill="#fff"/>
    <path id="Path_235" data-name="Path 235" d="M131.779,201.185h-.233a1.2,1.2,0,0,1-.79-.542,1.338,1.338,0,0,1-.18-.979,13.243,13.243,0,0,1,7.754-9.355,1.217,1.217,0,0,1,1.609.72,1.368,1.368,0,0,1,0,1,1.258,1.258,0,0,1-.678.7,10.671,10.671,0,0,0-6.184,7.422,1.273,1.273,0,0,1-1.3,1.028Z" transform="translate(415.189 106.498)" fill="#fff"/>
    <path id="Path_236" data-name="Path 236" d="M101.049,314.076l60.887-37.3V266.622L101.417,239.75l-60.867,27.1v10.177Z" transform="translate(492.267 253.182)" fill="#283131"/>
    <path id="Path_237" data-name="Path 237" d="M101.049,309.126l60.887-37.276L101.417,234.8,40.55,272.076Z" transform="translate(492.267 247.955)" fill="#fff"/>
    <path id="Path_238" data-name="Path 238" d="M93.862,295.266l45.883-28.106-45.592-27.9L48.27,267.346Z" transform="translate(499.493 252.665)" fill="#283131"/>
    <path id="Path_239" data-name="Path 239" d="M90.259,288.327l38.381-23.5L90.511,241.49,52.13,264.97Z" transform="translate(503.115 255.02)" fill="#cf7500"/>
    <path id="Path_240" data-name="Path 240" d="M89.138,314.488h.233a1.219,1.219,0,0,0,.783-.547,1.359,1.359,0,0,0,.187-.974,13.2,13.2,0,0,0-7.754-9.355,1.139,1.139,0,0,0-.939,0,1.245,1.245,0,0,0-.651.717,1.368,1.368,0,0,0,.01.992,1.258,1.258,0,0,0,.669.694,10.671,10.671,0,0,1,6.184,7.422,1.256,1.256,0,0,0,1.279,1.049Z" transform="translate(561.091 226.144)" fill="#fff"/>
    <path id="Path_241" data-name="Path 241" d="M94.126,317.564h.233a1.217,1.217,0,0,0,.8-.541,1.359,1.359,0,0,0,.194-.981,13.284,13.284,0,0,0-7.754-9.355,1.157,1.157,0,0,0-.935.01,1.263,1.263,0,0,0-.654.709,1.368,1.368,0,0,0,0,1,1.258,1.258,0,0,0,.678.7,10.671,10.671,0,0,1,6.184,7.422A1.256,1.256,0,0,0,94.126,317.564Z" transform="translate(546.391 229.4)" fill="#fff"/>
    <path id="Path_242" data-name="Path 242" d="M99.141,320.638h.233a1.334,1.334,0,0,0,.989-1.521,13.243,13.243,0,0,0-7.754-9.355,1.157,1.157,0,0,0-.947,0,1.263,1.263,0,0,0-.662.719,1.368,1.368,0,0,0,.01.992,1.258,1.258,0,0,0,.669.694,10.669,10.669,0,0,1,6.2,7.422,1.238,1.238,0,0,0,1.26,1.049Z" transform="translate(531.684 232.639)" fill="#fff"/>
    <path id="Path_243" data-name="Path 243" d="M104.062,323.714h.233a1.2,1.2,0,0,0,.79-.542,1.338,1.338,0,0,0,.18-.979,13.243,13.243,0,0,0-7.754-9.355,1.222,1.222,0,0,0-1.5.766,1.353,1.353,0,0,0,.572,1.661,10.61,10.61,0,0,1,6.184,7.422,1.253,1.253,0,0,0,1.3,1.028Z" transform="translate(517.071 235.936)" fill="#fff"/>
    <path id="Path_244" data-name="Path 244" d="M109.169,326.828h.233a1.219,1.219,0,0,0,.783-.547,1.359,1.359,0,0,0,.187-.974,13.2,13.2,0,0,0-7.754-9.355,1.157,1.157,0,0,0-.947,0,1.263,1.263,0,0,0-.662.719,1.345,1.345,0,0,0,.678,1.706,10.61,10.61,0,0,1,6.184,7.422,1.253,1.253,0,0,0,1.3,1.028Z" transform="translate(502.272 239.175)" fill="#fff"/>
    <path id="Path_245" data-name="Path 245" d="M136.775,314.485h-.233a1.313,1.313,0,0,1-.989-1.521,13.243,13.243,0,0,1,7.754-9.355,1.2,1.2,0,0,1,1.59.72,1.324,1.324,0,0,1-.678,1.686,10.671,10.671,0,0,0-6.184,7.422,1.258,1.258,0,0,1-1.26,1.049Z" transform="translate(400.578 226.148)" fill="#fff"/>
    <path id="Path_246" data-name="Path 246" d="M131.705,317.594h-.233a1.217,1.217,0,0,1-.8-.541,1.359,1.359,0,0,1-.194-.981,13.283,13.283,0,0,1,7.754-9.355,1.182,1.182,0,0,1,1.307.1,1.354,1.354,0,0,1,.494,1.287,1.293,1.293,0,0,1-.87,1.039,10.669,10.669,0,0,0-6.2,7.422A1.236,1.236,0,0,1,131.705,317.594Z" transform="translate(415.34 229.371)" fill="#fff"/>
    <path id="Path_247" data-name="Path 247" d="M126.739,320.638h-.233a1.22,1.22,0,0,1-.783-.547,1.36,1.36,0,0,1-.186-.974,13.2,13.2,0,0,1,7.754-9.355,1.157,1.157,0,0,1,.947,0,1.263,1.263,0,0,1,.662.719,1.368,1.368,0,0,1-.01.992,1.258,1.258,0,0,1-.669.694,10.669,10.669,0,0,0-6.2,7.422A1.217,1.217,0,0,1,126.739,320.638Z" transform="translate(429.999 232.639)" fill="#fff"/>
    <path id="Path_248" data-name="Path 248" d="M121.739,323.735h-.233a1.2,1.2,0,0,1-.79-.542,1.338,1.338,0,0,1-.18-.979,13.243,13.243,0,0,1,7.754-9.355,1.217,1.217,0,0,1,1.609.72,1.368,1.368,0,0,1,0,1,1.258,1.258,0,0,1-.678.7,10.671,10.671,0,0,0-6.184,7.422A1.253,1.253,0,0,1,121.739,323.735Z" transform="translate(444.691 235.915)" fill="#fff"/>
    <path id="Path_249" data-name="Path 249" d="M116.765,326.824h-.252a1.315,1.315,0,0,1-.969-1.521,13.243,13.243,0,0,1,7.754-9.355,1.157,1.157,0,0,1,.935.01,1.263,1.263,0,0,1,.654.709,1.345,1.345,0,0,1-.678,1.706,10.61,10.61,0,0,0-6.184,7.422,1.256,1.256,0,0,1-1.26,1.028Z" transform="translate(459.377 239.179)" fill="#fff"/>
    <path id="Path_250" data-name="Path 250" d="M321.879,198.506l60.887-37.276V151.052l-60.5-26.872L261.38,151.3v10.157Z" transform="translate(-156.63 131.136)" fill="#283131"/>
    <path id="Path_251" data-name="Path 251" d="M321.879,193.556l60.887-37.276-60.5-37.05-60.886,37.3Z" transform="translate(-156.63 125.908)" fill="#fff"/>
    <path id="Path_252" data-name="Path 252" d="M314.692,179.7l45.864-28.085L314.983,123.69,269.1,151.775Z" transform="translate(-149.385 130.618)" fill="#283131"/>
    <path id="Path_253" data-name="Path 253" d="M311.089,172.757l38.362-23.5L311.322,125.92,272.96,149.4Z" transform="translate(-145.763 132.973)" fill="#403d84"/>
    <path id="Path_254" data-name="Path 254" d="M309.953,198.915h.233a1.313,1.313,0,0,0,.989-1.521,13.243,13.243,0,0,0-7.754-9.355,1.217,1.217,0,0,0-1.609.72,1.365,1.365,0,0,0,.7,1.706,10.61,10.61,0,0,1,6.184,7.422A1.236,1.236,0,0,0,309.953,198.915Z" transform="translate(-87.791 104.101)" fill="#fff"/>
    <path id="Path_255" data-name="Path 255" d="M314.882,201.985h.233a1.2,1.2,0,0,0,.79-.542,1.339,1.339,0,0,0,.18-.979,13.182,13.182,0,0,0-7.754-9.355,1.222,1.222,0,0,0-1.5.766,1.353,1.353,0,0,0,.572,1.661,10.668,10.668,0,0,1,6.2,7.422A1.255,1.255,0,0,0,314.882,201.985Z" transform="translate(-102.413 107.384)" fill="#fff"/>
    <path id="Path_256" data-name="Path 256" d="M319.983,205.088h.233a1.22,1.22,0,0,0,.783-.547,1.359,1.359,0,0,0,.186-.974,13.2,13.2,0,0,0-7.754-9.355,1.157,1.157,0,0,0-.947,0,1.263,1.263,0,0,0-.662.719,1.366,1.366,0,0,0,.679,1.707,10.549,10.549,0,0,1,6.184,7.422,1.253,1.253,0,0,0,1.3,1.028Z" transform="translate(-117.206 110.613)" fill="#fff"/>
    <path id="Path_257" data-name="Path 257" d="M324.992,208.175h.233a1.2,1.2,0,0,0,.789-.542,1.338,1.338,0,0,0,.18-.979,13.243,13.243,0,0,0-7.754-9.355,1.217,1.217,0,0,0-1.609.72,1.368,1.368,0,0,0,0,1,1.258,1.258,0,0,0,.678.7,10.651,10.651,0,0,1,6.261,7.34A1.285,1.285,0,0,0,324.992,208.175Z" transform="translate(-131.907 113.879)" fill="#fff"/>
    <path id="Path_258" data-name="Path 258" d="M329.826,211.228h.233a1.313,1.313,0,0,0,.989-1.522,13.243,13.243,0,0,0-7.754-9.355,1.225,1.225,0,0,0-1.466.786,1.354,1.354,0,0,0,.554,1.64,10.61,10.61,0,0,1,6.184,7.422A1.256,1.256,0,0,0,329.826,211.228Z" transform="translate(-146.453 117.159)" fill="#fff"/>
    <path id="Path_259" data-name="Path 259" d="M357.568,198.918h-.233a1.219,1.219,0,0,1-.783-.547,1.359,1.359,0,0,1-.187-.974,13.2,13.2,0,0,1,7.754-9.355,1.157,1.157,0,0,1,.947,0,1.263,1.263,0,0,1,.662.719,1.344,1.344,0,0,1-.679,1.706,10.611,10.611,0,0,0-6.184,7.422,1.253,1.253,0,0,1-1.3,1.028Z" transform="translate(-248.282 104.097)" fill="#fff"/>
    <path id="Path_260" data-name="Path 260" d="M352.662,201.978h-.252a1.219,1.219,0,0,1-.783-.547,1.359,1.359,0,0,1-.187-.974A13.284,13.284,0,0,1,359.2,191.1a1.225,1.225,0,0,1,1.465.786,1.354,1.354,0,0,1-.554,1.64,10.671,10.671,0,0,0-6.184,7.422,1.275,1.275,0,0,1-1.26,1.028Z" transform="translate(-233.665 107.391)" fill="#fff"/>
    <path id="Path_261" data-name="Path 261" d="M347.512,205.12h-.233a1.313,1.313,0,0,1-.989-1.521,13.243,13.243,0,0,1,7.754-9.355,1.182,1.182,0,0,1,1.326.087,1.355,1.355,0,0,1,.492,1.309,1.287,1.287,0,0,1-.906,1.03,10.61,10.61,0,0,0-6.184,7.422,1.236,1.236,0,0,1-1.26,1.028Z" transform="translate(-218.822 110.581)" fill="#fff"/>
    <path id="Path_262" data-name="Path 262" d="M342.5,208.2h-.233a1.2,1.2,0,0,1-.79-.542,1.338,1.338,0,0,1-.18-.979,13.182,13.182,0,0,1,7.754-9.355,1.182,1.182,0,0,1,1.307.1,1.354,1.354,0,0,1,.494,1.287,1.292,1.292,0,0,1-.87,1.039,10.64,10.64,0,0,0-6.339,7.34A1.272,1.272,0,0,1,342.5,208.2Z" transform="translate(-204.118 113.851)" fill="#fff"/>
    <path id="Path_263" data-name="Path 263" d="M337.558,211.258h-.233a1.22,1.22,0,0,1-.783-.547,1.359,1.359,0,0,1-.186-.974,13.2,13.2,0,0,1,7.754-9.355,1.157,1.157,0,0,1,.947,0,1.263,1.263,0,0,1,.662.719,1.345,1.345,0,0,1-.678,1.707,10.55,10.55,0,0,0-6.184,7.422A1.253,1.253,0,0,1,337.558,211.258Z" transform="translate(-189.484 117.129)" fill="#fff"/>
    <g id="Group_35" data-name="Group 35" transform="translate(402.398 455.574)" opacity="0.57">
      <path id="Path_264" data-name="Path 264" d="M245.409,271.069l1.9-3.6-54.121-32.013L149.8,256.615,90.45,221.58l-1.9,3.6,61.1,36.042,43.363-21.157Z" transform="translate(-88.55 -221.58)" fill="#fff"/>
    </g>
    <g id="Group_36" data-name="Group 36" transform="translate(454.368 432.402)" opacity="0.57">
      <path id="Path_265" data-name="Path 265" d="M187.285,248.778l1.842-3.619-44.584-25.371-21.73,10.033L97.438,210.31l-2.268,3.331,27.177,20.889,22.021-10.177Z" transform="translate(-95.17 -210.31)" fill="#fff"/>
    </g>
    <g id="Group_37" data-name="Group 37" transform="translate(242.903 442.456)" opacity="0.57">
      <path id="Path_266" data-name="Path 266" d="M248.187,327.583l44.953-25.022L217.85,250.687l69.2-31.7-1.531-3.783L209.67,249.947l75.813,52.244-39.1,21.732Z" transform="translate(-209.67 -215.2)" fill="#fff"/>
    </g>
    <g id="Group_38" data-name="Group 38" transform="translate(437 280.523)" opacity="0.57">
      <path id="Path_267" data-name="Path 267" d="M186.177,236.692l36.966-21.9L96.911,136.44,94.954,140l120.378,74.716-29.174,17.271L118.37,192.817,77.43,216.687l1.88,3.6L118.389,197.5Z" transform="translate(-77.43 -136.44)" fill="#fff"/>
    </g>
  </g>
</svg>
