<svg xmlns="http://www.w3.org/2000/svg" xmlns:xlink="http://www.w3.org/1999/xlink" width="741.588" height="548.13" viewBox="0 0 741.588 548.13">
  <defs>
    <linearGradient id="linear-gradient" x1="1.731" y1="-0.048" x2="0.571" y2="0.473" gradientUnits="objectBoundingBox">
      <stop offset="0"/>
      <stop offset="1" stop-opacity="0"/>
    </linearGradient>
    <linearGradient id="linear-gradient-2" x1="-2.985" y1="0.854" x2="1.342" y2="0.469" xlink:href="#linear-gradient"/>
    <linearGradient id="linear-gradient-3" x1="-2.497" y1="1.805" x2="1.348" y2="0.131" gradientUnits="objectBoundingBox">
      <stop offset="0"/>
      <stop offset="1" stop-color="#28c772"/>
    </linearGradient>
    <linearGradient id="linear-gradient-4" x1="-1.542" y1="1.024" x2="1.108" y2="0.345" xlink:href="#linear-gradient"/>
    <linearGradient id="linear-gradient-5" x1="-1.551" y1="1.515" x2="0.908" y2="0.298" xlink:href="#linear-gradient"/>
    <linearGradient id="linear-gradient-6" x1="-1.548" y1="1.518" x2="0.911" y2="0.298" xlink:href="#linear-gradient"/>
  </defs>
  <g id="nwanochie-tech" transform="translate(0.012 0.03)">
    <path id="Path_121" data-name="Path 121" d="M345.272,9.333a216.024,216.024,0,0,1,58.41,17.733C429.383,39.379,450.6,58.28,474.756,73c41.168,25.07,90.466,39.252,137.264,49.065,18.691,3.949,37.616,7.617,54.438,16.518,25.7,13.645,44.111,38.387,56.915,64.625,28.037,57.593,33.154,127.451,8.2,186.562-24.392,57.452-80.116,105.98-143.432,112.148-79.905,8.2-159.787,23.855-239.832,33.761-55.583,8.224-111.4,16.355-167.591,17.079-23.364.257-47.336-.888-69.6-8.435C69.342,530.095,31.609,500.773,15.254,458.9a136.283,136.283,0,0,1,3.2-105.956c9.346-20.3,23.878-38.224,30.677-59.532,6.145-19.252,5.467-39.579,4.533-59.508a148.035,148.035,0,0,1,6.892-54.859c11.075-36.191,28.528-70.793,53.177-99.578,30.373-35.63,72.2-62.312,118.246-70.91a281.561,281.561,0,0,1,53.948-3.808,385.3,385.3,0,0,1,59.345,4.579Z" transform="translate(-6.08 -4.69)" fill="#283131" opacity="0.18"/>
    <path id="Path_122" data-name="Path 122" d="M98.058,185.757a16,16,0,0,0,1.285,6.822,11.425,11.425,0,0,0,4.953,4.673,19.7,19.7,0,0,0,14.509,1.425,2.92,2.92,0,0,0,1.682-1,2.57,2.57,0,0,0,.28-1.449,10.724,10.724,0,0,0-3.785-6.822,23.529,23.529,0,0,1-5.234-5.981c-2.336-4.486-.561-16.355-9.019-14.532C95.675,170.36,97.871,180.687,98.058,185.757Z" transform="translate(116.23 214.533)" fill="#ffbaa8"/>
    <path id="Path_123" data-name="Path 123" d="M97.55,179.63s-1.192,2.944.28,4.673,16.659,11.168,26.892,3.575-13.878-8.6-13.878-8.6Z" transform="translate(115.569 228.674)" fill="#283131"/>
    <path id="Path_124" data-name="Path 124" d="M98.044,177.121a2.173,2.173,0,0,1,2.734.724,8.9,8.9,0,0,0,8.131,2.827c3.318-.794,4.673-4.673,6.308-4.673s10.514,7.523,11,10.747-4.019,5.607-9.019,5.911-16.355-3.131-18.434-5.771A10.584,10.584,0,0,1,98.044,177.121Z" transform="translate(115.682 224.29)" fill="#fff"/>
    <path id="Path_125" data-name="Path 125" d="M85.646,187.74a16,16,0,0,0,1.285,6.822,11.355,11.355,0,0,0,4.977,4.673,19.626,19.626,0,0,0,14.486,1.425,2.921,2.921,0,0,0,1.729-1.1,2.57,2.57,0,0,0,.28-1.449,10.724,10.724,0,0,0-3.785-6.822,23.529,23.529,0,0,1-5.234-5.981c-2.22-4.486-.561-16.355-9.019-14.509C83.263,172.436,85.459,182.763,85.646,187.74Z" transform="translate(99.647 217.083)" fill="#ffbaa8"/>
    <path id="Path_126" data-name="Path 126" d="M85.14,181.61s-1.192,2.944.28,4.673,16.659,11.168,26.892,3.575-13.878-8.6-13.878-8.6Z" transform="translate(98.984 231.32)" fill="#283131"/>
    <path id="Path_127" data-name="Path 127" d="M85.641,179.1a2.149,2.149,0,0,1,2.734.7,8.925,8.925,0,0,0,8.131,2.874c3.318-.794,4.673-4.673,6.332-4.673s10.49,7.523,10.981,10.747-4.019,5.607-9.019,5.911-16.355-3.131-18.434-5.771a10.537,10.537,0,0,1-.724-9.79Z" transform="translate(99.091 226.963)" fill="#fff"/>
    <path id="Path_128" data-name="Path 128" d="M82.9,125.135s-1.589,86.844,4.836,115.816l16.355,2.009L115.4,124.06Z" transform="translate(96.365 154.877)" fill="#473f47"/>
    <path id="Path_129" data-name="Path 129" d="M121.139,120.46s7.687,46.728-1.635,122.077l-16.355,2.033L91.84,125.647Z" transform="translate(108.546 150.066)" fill="#473f47"/>
    <path id="Path_130" data-name="Path 130" d="M136.9,131c0,1.565.21,3.154.21,4.673,0,8.668-2.009,17.593.584,26.1a9.486,9.486,0,0,1,.7,5.794,7.009,7.009,0,0,1-3.621,3.481c-7.64,4.182-16.355,5.467-25.093,6.682-6.472.911-15.677,2.827-21.659-.654a10.864,10.864,0,0,1-4.252-7.009,133.173,133.173,0,0,1-4.042-27.336c0-1.215-.164-2.336-.234-3.6-.491-8.318-.678-16.612-.514-24.906,0-6.028.607-12.547,4.533-17.1,5.234-6.051,15.35-10.07,23.037-11.472a25.91,25.91,0,0,1,7.593-.374,32.172,32.172,0,0,1,10.233,3.481c3.832,1.892,7.22,3.481,9.089,7.243a51.705,51.705,0,0,1,4.276,13.761,50.069,50.069,0,0,1,.234,13.481c-.234,2.2-.794,4.369-1,6.565C136.926,130.21,136.926,130.608,136.9,131Z" transform="translate(91.287 102.886)" fill="#fff"/>
    <path id="Path_131" data-name="Path 131" d="M103.152,90.86l22.873,12.2,48.41-17.2,8.411,20.7s-44.392,22.71-52.966,22.8-31.121-6.145-31.121-6.145Z" transform="translate(117.794 103.826)" fill="#fff"/>
    <path id="Path_132" data-name="Path 132" d="M118.946,103.754c-2.593-.3-15.56-6.752-16.986-7.827,1.986,4.182,4.673,17.173,5.117,17.43a42.219,42.219,0,0,0,15.654,4.322,31.5,31.5,0,0,0,15.888-2.991,78.336,78.336,0,0,1,7.5-3.855c1.542-.584,3.154-.911,4.673-1.425a45.21,45.21,0,0,0,11.285-6.238,4.509,4.509,0,0,0,2.336-2.78c.234-1.542-1.145-2.85-2.547-3.528a17.476,17.476,0,0,0-7.009-1.472,31.775,31.775,0,0,0-9.533.21c-1.986.561-3.458,2.336-5.4,3.294C134.319,101.348,125.02,104.455,118.946,103.754Z" transform="translate(122.07 116.212)" fill="#020202" opacity="0.1"/>
    <path id="Path_133" data-name="Path 133" d="M102.664,173.134c-2.523.724-8.318-1.565-10.233-1.916a29.592,29.592,0,0,1-3.341-1.051c-5.748-1.425-6.425-17.546-7.009-21.892-1.5-11.472-3.785-23.364-3.925-34.859a38.737,38.737,0,0,1,1.519-13.131A15.233,15.233,0,0,1,88.3,90.706a4.346,4.346,0,0,1,2.547-.257c3.481.888,4.206,6.659,4.813,9.346,1.051,4.906,3.435,7.149,5.864,11.075s2.593,8.832,4.906,12.874a9.345,9.345,0,0,0,2.336,2.944,10.607,10.607,0,0,0,6.542,1.378h16.5a5.21,5.21,0,0,1,3.762.935,5.4,5.4,0,0,1,.981,4.439l-1,12.2a2.78,2.78,0,0,1-.4,1.519,2.92,2.92,0,0,1-1.776.864,44.182,44.182,0,0,0-13.014,4,75.28,75.28,0,0,1-12.663,7.009,12.148,12.148,0,0,0-3.458,2.336,7.617,7.617,0,0,0-1.659,5.21c0,1.192,1.519,4.86,1.075,5.724a1.659,1.659,0,0,1-.981.841Z" transform="translate(90.175 109.845)" fill="#020202" opacity="0.1"/>
    <path id="Path_134" data-name="Path 134" d="M108.34,95.874a5.467,5.467,0,0,1-3.528,1.776,18.529,18.529,0,0,1-3.411,0h-.631a.771.771,0,0,0-.467,0,.677.677,0,0,0-.21.514,39.1,39.1,0,0,0,0,6.822h0v1.238a2.337,2.337,0,0,1,0,1.285,2.173,2.173,0,0,1-1.378.888,10.069,10.069,0,0,1-3.084.537,13.6,13.6,0,0,1-6.355-2.1,62.244,62.244,0,0,0-.607-11.682c-.724-4.977-2.033-9.953-1.5-14.953a9.626,9.626,0,0,1,2.1-5.35,9.79,9.79,0,0,1,7.406-2.664,18.972,18.972,0,0,1,10.163,2.78c1.121.771,1.238,1.752,1.5,3.014.4,1.963.7,3.949.935,5.934s.374,4.533.421,6.822a7.663,7.663,0,0,1-1.355,5.14Z" transform="translate(102.139 85.518)" fill="#ffbaa8"/>
    <path id="Path_135" data-name="Path 135" d="M113.809,82.246c-2.336.631-5.35,0-7.71,1.028a7.547,7.547,0,0,0-3.692,9.182c-.958.35-1.145-1.4-1.892-2.1s-2.336.234-2.547,1.449a7.547,7.547,0,0,0,1.051,3.458,10.3,10.3,0,0,1,.467,6.8c-.164.537-.561,1.168-1.075,1.028s-.911-1.051-1.238-1.449a14.9,14.9,0,0,0-1.706-1.729c-1.168-1.028-2.477-1.939-3.692-2.944S90.117,95,88.716,94.629a26.654,26.654,0,0,0-4.019-.491,5.818,5.818,0,0,1-2.8-10.023A4.042,4.042,0,0,0,83.038,82.9a3.691,3.691,0,0,0,.14-1.682,8.925,8.925,0,0,1,4.159-7.36A15.187,15.187,0,0,1,95.7,71.522a5.093,5.093,0,0,0,1.892-.234,5.818,5.818,0,0,0,1.519-1.121,11.051,11.051,0,0,1,16.822,3.107,8.084,8.084,0,0,1,1.051,5.327,4.159,4.159,0,0,1-3.178,3.645Z" transform="translate(92.699 79.357)" fill="#ff681c"/>
    <path id="Path_136" data-name="Path 136" d="M97.576,84.436h-.631a.771.771,0,0,0-.467,0,.677.677,0,0,0-.21.514,39.109,39.109,0,0,0,0,6.822h0A9.135,9.135,0,0,1,89.96,82.1a38.762,38.762,0,0,0,7.687,2.336Z" transform="translate(105.964 98.801)" fill="#e0a091"/>
    <rect id="Rectangle_65" data-name="Rectangle 65" width="24.766" height="58.293" rx="5.3" transform="translate(165.216 204.981) rotate(-19.53)" fill="#fff"/>
    <path id="Path_137" data-name="Path 137" d="M391.108,141.943C381.085,329.837,255.34,378.948,255.34,378.948c-139.6-83.176-138.9-245.6-138.9-245.6C205.411,109.327,256.3,60.192,257.886,58.58h0C291.063,106.92,391.108,141.943,391.108,141.943Z" transform="translate(141.422 67.369)" fill="#283131"/>
    <path id="Path_138" data-name="Path 138" d="M391.108,141.57C381.085,329.464,255.34,378.575,255.34,378.575c-139.6-83.176-138.9-245.6-138.9-245.6C205.457,109,256.344,59.935,257.933,58.3h0C291.063,106.664,391.108,141.57,391.108,141.57Z" transform="translate(141.422 66.995)" fill="url(#linear-gradient)"/>
    <path id="Path_139" data-name="Path 139" d="M116.375,106.679a35.8,35.8,0,0,0,3.318-2.757,34.275,34.275,0,0,1,8.5-5.631,16.5,16.5,0,0,1,9.977-1.262c.724.14,1.589.584,1.5,1.332s-.514.794-.958,1.028a31.659,31.659,0,0,1-6.191,2.617,3.445,3.445,0,0,0-2.336,1.449,4.673,4.673,0,0,0,2.126-.257,23.364,23.364,0,0,1,8.154-.584c.257,0,.561,0,.7.327a.7.7,0,0,1-.421.911c-2.617,2.079-6.542,1.939-9.042,4.182-.444.374-.771,1.168-.28,1.472a.981.981,0,0,0,.631,0,19.382,19.382,0,0,0,3.2-.631,15.607,15.607,0,0,1,5.21-.14.865.865,0,0,1,.607.28c.257.4-.28.841-.7,1.051l-9.042,3.949a22.083,22.083,0,0,0,3.738,0,5.14,5.14,0,0,1,3.5,1.121.257.257,0,0,1,.14.21c0,.164,0,.257-.257.327a12.056,12.056,0,0,1-4.673,1.4,14.508,14.508,0,0,0-2.874.514,13.287,13.287,0,0,0-1.659.748,17.967,17.967,0,0,1-5.561,1.869,8.9,8.9,0,0,1-5.7-.935,8.717,8.717,0,0,0-1.472-.748c-1.869-.514-3.949,1.425-5.677.514a4.042,4.042,0,0,1-1.355-1.565c-.935-1.542-4.065-5.841-1.542-7.266a37.73,37.73,0,0,1,4.346-1.4,19.93,19.93,0,0,0,4.089-2.126Z" transform="translate(128.777 118.381)" fill="#ffbaa8"/>
    <path id="Path_140" data-name="Path 140" d="M106.921,104.827l30.934-2.967,5,15.093s-45.21,18.388-53.994,13.271-.631-13.458-.631-13.458S89.258,104.523,106.921,104.827Z" transform="translate(99.119 125.209)" fill="#fff"/>
    <path id="Path_141" data-name="Path 141" d="M365.529,140.137c-8.855,165.6-119.671,208.9-119.671,208.9C122.823,275.718,123.43,132.567,123.43,132.567,201.863,111.4,246.7,68.082,248.1,66.75h0C277.306,109.389,365.529,140.137,365.529,140.137Z" transform="translate(150.763 78.287)" fill="#283131"/>
    <path id="Path_142" data-name="Path 142" d="M248.164,66.74l-2.336,282.308C122.793,275.732,123.4,132.58,123.4,132.58,201.833,111.412,246.669,68.1,248.071,66.763Z" transform="translate(150.723 78.274)" fill="url(#linear-gradient-2)"/>
    <circle id="Ellipse_2" data-name="Ellipse 2" cx="21.705" cy="21.705" r="21.705" transform="translate(374.916 244.335)" fill="#473f47"/>
    <path id="Path_143" data-name="Path 143" d="M164.16,156.906h23.387l-6.635-34.766h-8.528Z" transform="translate(219.4 163.269)" fill="#473f47"/>
    <path id="Path_144" data-name="Path 144" d="M119.88,122.037H147.8V101.78h22.126" transform="translate(160.224 136.06)" fill="none" stroke="#fff" stroke-miterlimit="10" stroke-width="0.96" opacity="0.18"/>
    <path id="Path_145" data-name="Path 145" d="M122.22,119.74h36.355v44.2h22.757" transform="translate(163.351 160.061)" fill="none" stroke="#fff" stroke-miterlimit="10" stroke-width="0.96" opacity="0.18"/>
    <path id="Path_146" data-name="Path 146" d="M269.815,119.488H223.787V93.39h-41.1" transform="translate(244.164 124.847)" fill="none" stroke="#fff" stroke-miterlimit="10" stroke-width="0.96" opacity="0.18"/>
    <path id="Path_147" data-name="Path 147" d="M260.037,123.14H215.2V169.1H183.59" transform="translate(245.367 164.605)" fill="none" stroke="#fff" stroke-miterlimit="10" stroke-width="0.96" opacity="0.18"/>
    <path id="Path_148" data-name="Path 148" d="M141.3,167.863h37.616V150.2h22.757" transform="translate(188.85 200.769)" fill="none" stroke="#fff" stroke-miterlimit="10" stroke-width="0.96" opacity="0.18"/>
    <path id="Path_149" data-name="Path 149" d="M141.432,94.187a2.547,2.547,0,0,0,2.64-.537c1.028-1.192.21-2.991-.631-4.322.794-.607,1.939.164,2.547.981s1.332,1.8,2.336,1.682,1.565-1.5,1.308-2.523a15.183,15.183,0,0,0-1.519-2.85c.444-.607,1.425,0,1.822.584s.935,1.472,1.659,1.308a1.308,1.308,0,0,0,.724-1.542,13.023,13.023,0,0,1-.4-1.846c1.238-.4,2.663.888,3.808.28a1.776,1.776,0,0,0,.234-2.64,4.673,4.673,0,0,0-2.71-1.285,11.682,11.682,0,0,0-7.477.888c-2.687,1.075-5.491,1.635-8.107,2.991a15.957,15.957,0,0,0-6.192,4.673,1.051,1.051,0,0,0,.3,1.379,1.682,1.682,0,0,0,1.075,0,7.967,7.967,0,0,1,5.42.911A25.541,25.541,0,0,0,141.035,94Z" transform="translate(161.335 97.626)" fill="#ffbaa8"/>
    <path id="Path_150" data-name="Path 150" d="M610.663,147.5c-25.42-54.2-142.334-95.279-282.285-95.279C169.876,52.22,41,104.883,41,169.625s128.946,117.4,287.378,117.4c108.036,0,202.333-24.462,251.444-60.536a119.392,119.392,0,0,0,19.345-17.476,65.187,65.187,0,0,0,15.584-29.205,49.789,49.789,0,0,0,1.075-10.187A51.681,51.681,0,0,0,610.663,147.5ZM596.9,208.806a117.642,117.642,0,0,1-16.589,15.046c-48.083,36.4-142.988,61.214-251.982,61.214-157.4,0-285.486-51.775-285.486-115.442S170.928,54.159,328.378,54.159c138.175,0,253.734,39.906,279.925,92.709a50.84,50.84,0,0,1,5.561,22.757,44.392,44.392,0,0,1-.748,8.248C611.2,188.666,605.64,199.04,596.9,208.806Z" transform="translate(40.603 58.869)" fill="#fff"/>
    <path id="Path_151" data-name="Path 151" d="M619.4,164.3a51.129,51.129,0,0,0-.841-5.631,57.2,57.2,0,0,0-2.991-9.7l-.421-.14c-1.472-.467-2.991-.888-4.486-1.332-25.42-54.2-142.334-95.279-282.285-95.279C169.876,52.22,41,104.883,41,169.625s128.946,117.4,287.378,117.4c108.036,0,202.333-24.462,251.444-60.536a5.3,5.3,0,0,0,1.332,3.878,119.862,119.862,0,0,0,23.761-22.126,68.9,68.9,0,0,0,12.43-22.967,53.362,53.362,0,0,0,2.336-15.631A50.863,50.863,0,0,0,619.4,164.3ZM328.378,285.067c-157.4,0-285.486-51.775-285.486-115.442S170.928,54.159,328.378,54.159c138.175,0,253.734,39.906,279.925,92.709a5.7,5.7,0,0,0-3.972.678,47.92,47.92,0,0,1,5.631,22.079,44.967,44.967,0,0,1-.327,5.327c-1.379,11.261-7.009,22.289-16.822,32.71a105.785,105.785,0,0,1-11.869,10.864,5.631,5.631,0,0,1,0,3.061c-.21.748-.444,1.5-.654,2.336C532.23,260.254,437.325,285.067,328.378,285.067Z" transform="translate(40.603 58.869)" fill="#283131" opacity="0.18"/>
    <path id="Path_152" data-name="Path 152" d="M607.241,145.759a5.7,5.7,0,0,0-3.972.678c-10.747-20.817-36.705-40.163-75.653-55.91C474.089,68.891,402.946,56.975,327.363,56.975s-146.8,11.916-200.324,33.551c-52.452,21.191-81.307,48.854-81.307,77.989s28.855,56.775,81.26,77.966c53.527,21.659,124.671,33.574,200.324,33.574s146.773-11.916,200.3-33.574c21.518-8.691,39.041-18.458,52.265-29.042a5.63,5.63,0,0,1,0,3.061c-.21.748-.444,1.5-.654,2.336-48.083,36.4-142.988,61.214-251.982,61.214-157.4,0-285.486-51.775-285.486-115.442S169.912,53.05,327.363,53.05C465.491,53.05,581.05,92.956,607.241,145.759Z" transform="translate(41.619 59.979)" fill="#283131" opacity="0.18"/>
    <path id="Path_153" data-name="Path 153" d="M617.842,151.2l-.421-.14c-1.472-.467-2.991-.888-4.486-1.332C587.515,95.526,470.6,54.452,330.65,54.452c-158.5,0-287.378,52.663-287.378,117.4s128.946,117.4,287.378,117.4c108.036,0,202.333-24.462,251.444-60.536a5.3,5.3,0,0,0,1.332,3.878,232.378,232.378,0,0,1-48.153,25.864c-54.836,22.383-127.521,34.7-204.623,34.7s-149.834-12.313-204.623-34.7C70.094,235.617,39.3,204.846,39.3,171.856S70.047,108.1,125.981,85.269C180.77,62.863,253.549,50.55,330.65,50.55S480.484,62.863,535.273,85.269C579.291,103.259,607.748,126.156,617.842,151.2Z" transform="translate(38.331 56.638)" fill="#283131" opacity="0.18"/>
    <ellipse id="Ellipse_3" data-name="Ellipse 3" cx="224.833" cy="37.055" rx="224.833" ry="37.055" transform="translate(131.462 386.038)" fill="#283131" opacity="0.35"/>
    <path id="Path_154" data-name="Path 154" d="M225.89,83.2" transform="translate(287.692 100.271)" fill="#fff"/>
    <path id="Path_155" data-name="Path 155" d="M162.819,101.45H107.75V33.46h47.476l7.593,9.7Z" transform="translate(144.014 44.756)" fill="#cf7500"/>
    <path id="Path_156" data-name="Path 156" d="M160.729,103.17H105.66V35.18h47.476l7.593,9.7Z" transform="translate(141.221 47.055)" fill="#fff"/>
    <path id="Path_157" data-name="Path 157" d="M160.529,103.37H105.46V35.38h47.476l7.593,9.7Z" transform="translate(140.953 47.322)" fill="url(#linear-gradient-3)"/>
    <path id="Path_158" data-name="Path 158" d="M158.459,105.793H103.39V37.78h47.476l7.593,9.7Z" transform="translate(138.187 50.529)" fill="#fff"/>
    <path id="Path_159" data-name="Path 159" d="M123.71,37.78v9.6H131.3Z" transform="translate(165.343 50.529)" fill="url(#linear-gradient-4)"/>
    <path id="Path_160" data-name="Path 160" d="M125.78,35.38v9.883h7.593Z" transform="translate(168.109 47.322)" fill="url(#linear-gradient-5)"/>
    <path id="Path_161" data-name="Path 161" d="M128.07,33.46v9.883h7.593Z" transform="translate(171.169 44.756)" fill="url(#linear-gradient-6)"/>
    <g id="Q83r0t" transform="translate(598.372 204.61)">
      <path id="Path_162" data-name="Path 162" d="M320.005,176.995a5.491,5.491,0,0,1-3.458-2.687c-.561-.958-1.075-1.963-1.635-2.92a5.07,5.07,0,0,0-5.3-2.734,5.187,5.187,0,0,0-4.673,3.832c-.35,1.145-.631,2.336-1.028,3.434a5.654,5.654,0,0,1-7.009,3.715l-6.425-1.892a5.7,5.7,0,0,1-3.972-7.149c.3-1.168.7-2.336.981-3.458a5.047,5.047,0,0,0-1.893-5.537,4.93,4.93,0,0,0-5.724-.561c-1,.491-1.963,1.075-2.944,1.589a5.818,5.818,0,0,1-7.967-2.336c-1.121-2.033-2.336-4.042-3.341-6.075a5.631,5.631,0,0,1,2.336-7.92c.935-.537,1.916-1,2.827-1.542a5.377,5.377,0,0,0-.911-9.766c-1.121-.374-2.336-.654-3.434-1.028a5.7,5.7,0,0,1-3.9-7.477c.584-2.033,1.168-4.065,1.776-6.1a5.607,5.607,0,0,1,6.705-4.042c1.215.234,2.336.631,3.575.958a5.35,5.35,0,0,0,6.262-7.9c-.514-.911-1.028-1.822-1.5-2.734a5.561,5.561,0,0,1,2.336-7.593c2.173-1.238,4.369-2.336,6.612-3.551a5.818,5.818,0,0,1,7.617,2.336c.584,1,1.1,2.033,1.682,3.037a4.977,4.977,0,0,0,5.14,2.593,5.047,5.047,0,0,0,4.556-3.692c.35-1.051.631-2.149.958-3.2A5.794,5.794,0,0,1,315.8,92.58l5.981,1.752a5.771,5.771,0,0,1,4.135,7.29c-.28,1.028-.607,2.079-.911,3.107a5.117,5.117,0,0,0,1.752,5.794,5.187,5.187,0,0,0,6.051.491c.911-.491,1.822-1.028,2.734-1.5a5.818,5.818,0,0,1,7.9,2.336c1.168,2.079,2.336,4.182,3.458,6.285a5.631,5.631,0,0,1-2.336,7.757c-1,.561-2.056,1.051-3.061,1.635a4.883,4.883,0,0,0-2.617,4.673,4.976,4.976,0,0,0,3.2,4.673,37.1,37.1,0,0,0,3.645,1.145,5.257,5.257,0,0,1,3.832,6.8q-.911,3.5-2.033,7.009a5.4,5.4,0,0,1-7.126,3.715c-1.075-.3-2.126-.654-3.224-.911a5,5,0,0,0-5.4,1.963,4.86,4.86,0,0,0-.491,5.631c.537,1.028,1.145,2.033,1.682,3.037a5.654,5.654,0,0,1-2.336,7.78c-2.079,1.168-4.182,2.336-6.285,3.434A5.584,5.584,0,0,1,320.005,176.995ZM288.44,130.827a18.458,18.458,0,1,0,8.9-11.028,18.5,18.5,0,0,0-8.9,11.028Z" transform="translate(-262.181 -92.248)" fill="#283131"/>
    </g>
    <g id="Q83r0t-2" data-name="Q83r0t" transform="translate(598.372 204.61)" opacity="0.27">
      <path id="Path_163" data-name="Path 163" d="M320.005,176.995a5.491,5.491,0,0,1-3.458-2.687c-.561-.958-1.075-1.963-1.635-2.92a5.07,5.07,0,0,0-5.3-2.734,5.187,5.187,0,0,0-4.673,3.832c-.35,1.145-.631,2.336-1.028,3.434a5.654,5.654,0,0,1-7.009,3.715l-6.425-1.892a5.7,5.7,0,0,1-3.972-7.149c.3-1.168.7-2.336.981-3.458a5.047,5.047,0,0,0-1.893-5.537,4.93,4.93,0,0,0-5.724-.561c-1,.491-1.963,1.075-2.944,1.589a5.818,5.818,0,0,1-7.967-2.336c-1.121-2.033-2.336-4.042-3.341-6.075a5.631,5.631,0,0,1,2.336-7.92c.935-.537,1.916-1,2.827-1.542a5.377,5.377,0,0,0-.911-9.766c-1.121-.374-2.336-.654-3.434-1.028a5.7,5.7,0,0,1-3.9-7.477c.584-2.033,1.168-4.065,1.776-6.1a5.607,5.607,0,0,1,6.705-4.042c1.215.234,2.336.631,3.575.958a5.35,5.35,0,0,0,6.262-7.9c-.514-.911-1.028-1.822-1.5-2.734a5.561,5.561,0,0,1,2.336-7.593c2.173-1.238,4.369-2.336,6.612-3.551a5.818,5.818,0,0,1,7.617,2.336c.584,1,1.1,2.033,1.682,3.037a4.977,4.977,0,0,0,5.14,2.593,5.047,5.047,0,0,0,4.556-3.692c.35-1.051.631-2.149.958-3.2A5.794,5.794,0,0,1,315.8,92.58l5.981,1.752a5.771,5.771,0,0,1,4.135,7.29c-.28,1.028-.607,2.079-.911,3.107a5.117,5.117,0,0,0,1.752,5.794,5.187,5.187,0,0,0,6.051.491c.911-.491,1.822-1.028,2.734-1.5a5.818,5.818,0,0,1,7.9,2.336c1.168,2.079,2.336,4.182,3.458,6.285a5.631,5.631,0,0,1-2.336,7.757c-1,.561-2.056,1.051-3.061,1.635a4.883,4.883,0,0,0-2.617,4.673,4.976,4.976,0,0,0,3.2,4.673,37.1,37.1,0,0,0,3.645,1.145,5.257,5.257,0,0,1,3.832,6.8q-.911,3.5-2.033,7.009a5.4,5.4,0,0,1-7.126,3.715c-1.075-.3-2.126-.654-3.224-.911a5,5,0,0,0-5.4,1.963,4.86,4.86,0,0,0-.491,5.631c.537,1.028,1.145,2.033,1.682,3.037a5.654,5.654,0,0,1-2.336,7.78c-2.079,1.168-4.182,2.336-6.285,3.434A5.584,5.584,0,0,1,320.005,176.995ZM288.44,130.827a18.458,18.458,0,1,0,8.9-11.028,18.5,18.5,0,0,0-8.9,11.028Z" transform="translate(-262.181 -92.248)" fill="#020202"/>
    </g>
    <g id="Q83r0t-3" data-name="Q83r0t" transform="translate(596.154 205.726)">
      <path id="Path_164" data-name="Path 164" d="M344.8,138.437c-1.192-.374-2.453-.654-3.621-1.145a4.976,4.976,0,0,1-3.2-4.673,4.906,4.906,0,0,1,2.64-4.673c.981-.561,2.033-1.075,3.037-1.635a5.631,5.631,0,0,0,2.336-7.757c-1.122-2.1-2.336-4.206-3.458-6.262a5.818,5.818,0,0,0-7.9-2.336l-2.734,1.5a5.187,5.187,0,0,1-6.051-.467c-.257-.234-.491-.467-.724-.724a5.07,5.07,0,0,1-1.028-5.093,1.64,1.64,0,0,1,.187-.537c.234-.864.491-1.706.7-2.57a5.7,5.7,0,0,0-3.692-7.126l-.42-.14c-1.472-.467-2.991-.888-4.486-1.332l-1.519-.444-.888-.187a5.7,5.7,0,0,0-3.972.678,5.958,5.958,0,0,0-2.593,3.434c-.351,1.075-.631,2.15-.958,3.224a5.093,5.093,0,0,1-4.673,3.668,5,5,0,0,1-5.14-2.57c-.607-1-1.1-2.033-1.682-3.061a5.771,5.771,0,0,0-7.593-2.336c-2.336,1.1-4.463,2.336-6.635,3.528a5.561,5.561,0,0,0-2.336,7.593c.467.935,1,1.822,1.5,2.734a5.364,5.364,0,0,1-6.262,7.92,36.663,36.663,0,0,0-3.575-.981,5.607,5.607,0,0,0-6.706,4.042c-.584,2.033-1.192,4.065-1.776,6.121a5.677,5.677,0,0,0,3.925,7.453c1.121.4,2.336.631,3.411,1.028a5.117,5.117,0,0,1,3.621,4.673,4.977,4.977,0,0,1-2.687,5.093c-.935.537-1.916,1.028-2.85,1.542a5.631,5.631,0,0,0-2.336,7.92c1.1,2.033,2.22,4.065,3.341,6.075a5.864,5.864,0,0,0,7.967,2.336c.981-.537,1.939-1.1,2.944-1.612a4.977,4.977,0,0,1,5.724.561,5.35,5.35,0,0,1,1.846,2.5,5.631,5.631,0,0,1,0,3.061c-.21.748-.444,1.5-.654,2.336l-.35,1.192a6.144,6.144,0,0,0,1.145,5.327,5.608,5.608,0,0,0,2.827,1.846l6.425,1.869a5.677,5.677,0,0,0,7.009-3.715c.4-1.121.678-2.336,1.028-3.435a5.234,5.234,0,0,1,4.673-3.832,5.093,5.093,0,0,1,5.28,2.734c.561.958,1.075,1.963,1.612,2.944a5.888,5.888,0,0,0,7.85,2.336c2.1-1.145,4.206-2.336,6.285-3.435a5.631,5.631,0,0,0,2.336-7.757c-.561-1.028-1.168-2.009-1.682-3.037a4.813,4.813,0,0,1,.467-5.631,5.047,5.047,0,0,1,5.4-1.986c1.1.257,2.149.631,3.224.935a5.374,5.374,0,0,0,7.009-3.715c.771-2.336,1.449-4.673,2.056-7.009a5.28,5.28,0,0,0-3.621-6.986Zm-21.729,3.131A18.691,18.691,0,0,1,304.8,154.885a14.02,14.02,0,0,1-2.22-.21,19.112,19.112,0,0,1-2.5-.537,13.629,13.629,0,0,1-1.636-.584,18.481,18.481,0,0,1,12.1-34.883,18.059,18.059,0,0,1,4.673,2.149,16.352,16.352,0,0,1,3.481,2.921,15.981,15.981,0,0,1,1.635,1.939,18.948,18.948,0,0,1,2.64,5.444,18.247,18.247,0,0,1,.094,10.444Z" transform="translate(-261.232 -92.725)" fill="#283131"/>
    </g>
  </g>
</svg>
