<svg xmlns="http://www.w3.org/2000/svg" xmlns:xlink="http://www.w3.org/1999/xlink" width="817.604" height="630.026" viewBox="0 0 817.604 630.026">
  <defs>
    <linearGradient id="linear-gradient" x1="0.339" y1="2.951" x2="0.806" y2="-4.116" gradientUnits="objectBoundingBox">
      <stop offset="0.01"/>
      <stop offset="0.13" stop-opacity="0.69"/>
      <stop offset="0.25" stop-opacity="0.322"/>
      <stop offset="1" stop-opacity="0"/>
    </linearGradient>
  </defs>
  <g id="nwanochie-drone" transform="translate(0.038 0.006)">
    <path id="Path_85" data-name="Path 85" d="M506.153,22.592,655.377,37.651c33.073,3.324,66.884,6.848,96.973,20.969,44.068,20.656,76.715,65.35,79.982,113.907,2.841,43.074-15.229,83.25-17.417,125.7-2.33,45.66,23.3,81.318,23.27,127.119A189.571,189.571,0,0,1,783.8,557.182c-48.643,49.041-120.584,67.509-189.542,71.032s-138.144-5.427-207.1-1.7c-65.35,3.495-130.188,18.44-195.339,13.468S57.626,604.319,31.856,544.254C9.3,491.633,24.326,427.477,44.329,376.277c16.224-41.483,50.831-60.889,72.51-100.042C157.725,202.674,160,103.541,230.263,48.022c56.4-44.551,135.984-39.551,207.414-32.334Z" transform="translate(-20.62 -10.96)" fill="#283131" opacity="0.18"/>
    <path id="Path_86" data-name="Path 86" d="M240.742,209.532c-8.268,2.415-17.985,6.393-19.378,14.917-1.051,6.478,3.751,12.786,9.66,15.627a46.6,46.6,0,0,0,19.292,3.154c43.443.881,88.876,1.335,127.858-18.042,8.524-4.234,16.479-9.319,25.032-13.354a59.868,59.868,0,0,0,14.008-7.7,15.144,15.144,0,0,0,5.683-14.206c-1.392-6.222-8.183-10-14.576-10.2s-12.5,2.3-18.5,4.489a216.935,216.935,0,0,1-78.533,13.07c-11.138-.227-20.571-2.387-31.4.6C266.825,201.605,253.812,205.668,240.742,209.532Z" transform="translate(348.811 299.781)" fill="#020202" opacity="0.03"/>
    <path id="Path_87" data-name="Path 87" d="M232.789,235.611,78.45,311.275V152.5L232.789,76.84Z" transform="translate(144.519 141.496)" fill="#283131"/>
    <path id="Path_88" data-name="Path 88" d="M207.329,221.551,52.99,297.187V138.415L207.329,62.78Z" transform="translate(97.64 115.608)" fill="#283131" opacity="0.35"/>
    <path id="Path_89" data-name="Path 89" d="M256.817,246,102.45,321.637v-158.8L256.817,87.23Z" transform="translate(188.71 160.628)" fill="#cf7500"/>
    <path id="Path_90" data-name="Path 90" d="M271.6,204.059a25.032,25.032,0,0,1-2.017,10.74,17.9,17.9,0,0,1-7.785,7.217,30.544,30.544,0,0,1-22.73,2.245,4.375,4.375,0,0,1-2.614-1.563,3.978,3.978,0,0,1-.483-2.273,17.048,17.048,0,0,1,5.967-10.712,36.938,36.938,0,0,0,8.211-9.4c3.495-7.046.909-25.8,14.206-22.73C275.378,180.022,271.884,196.217,271.6,204.059Z" transform="translate(375.944 295.225)" fill="#ffbaa8"/>
    <path id="Path_91" data-name="Path 91" d="M279.377,191.455s1.875,4.631-.455,7.359S252.755,216.344,236.7,204.5,258.494,191,258.494,191Z" transform="translate(370.013 320.558)" fill="#283131"/>
    <path id="Path_92" data-name="Path 92" d="M277.544,188.41a3.438,3.438,0,0,0-4.319,1.108,13.951,13.951,0,0,1-12.757,4.574c-5.228-1.25-7.331-7.274-9.945-7.3s-16.479,11.791-17.247,16.849,6.308,8.808,14.206,9.291,25.572-4.915,28.981-9.035a16.849,16.849,0,0,0,1.08-15.485Z" transform="translate(370.908 312.806)" fill="#fff"/>
    <path id="Path_93" data-name="Path 93" d="M287.615,206.622a25.57,25.57,0,0,1-2.017,10.74,17.9,17.9,0,0,1-7.785,7.217,30.544,30.544,0,0,1-22.73,2.245,4.4,4.4,0,0,1-2.614-1.591,3.835,3.835,0,0,1-.455-2.245,17.048,17.048,0,0,1,5.967-10.712,37.423,37.423,0,0,0,8.211-9.4c3.495-7.046.909-25.827,14.206-22.73C291.365,182.585,287.9,198.78,287.615,206.622Z" transform="translate(405.474 299.935)" fill="#ffbaa8"/>
    <path id="Path_94" data-name="Path 94" d="M295.38,193.986s1.9,4.66-.426,7.359-26.168,17.559-42.222,5.683S274.5,193.56,274.5,193.56Z" transform="translate(399.527 325.272)" fill="#283131"/>
    <path id="Path_95" data-name="Path 95" d="M293.574,190.988a3.438,3.438,0,0,0-4.319,1.108,13.979,13.979,0,0,1-12.757,4.575c-5.228-1.25-7.33-7.274-9.944-7.331s-16.479,11.791-17.247,16.877,6.279,8.808,14.206,9.291,25.572-4.944,28.953-9.064a16.707,16.707,0,0,0,1.108-15.457Z" transform="translate(400.424 317.501)" fill="#fff"/>
    <path id="Path_96" data-name="Path 96" d="M300.9,121.4s2.472,136.382-7.643,181.843L267.688,306.4,249.93,119.61Z" transform="translate(401.676 189.108)" fill="#473f47"/>
    <path id="Path_97" data-name="Path 97" d="M243.022,115s-12.047,73.589,2.586,191.787l25.572,3.154,17.758-186.787Z" transform="translate(380.37 180.62)" fill="#473f47"/>
    <path id="Path_98" data-name="Path 98" d="M229.424,132.179c.284,4.915,1.875,9.234,6.137,10.655l1.108.284c7.87,1.591,18.213-4.4,25.4-9.632a99.445,99.445,0,0,0,8.524-6.99V73.79L232.293,113A59.98,59.98,0,0,0,229.424,132.179Z" transform="translate(363.908 104.74)" fill="#fff"/>
    <path id="Path_99" data-name="Path 99" d="M242.487,141.4c0,2.444-.313,4.972-.313,7.416,0,13.638,3.154,27.674-.909,41a14.917,14.917,0,0,0-1.08,9.149,11.2,11.2,0,0,0,5.683,5.484c11.99,6.563,25.856,8.524,39.409,10.484,10.172,1.421,24.634,4.432,34.1-1.051,4.006-2.33,5.37-6.677,6.649-11.024,4.091-13.809,5.285-28.64,6.364-42.96.142-1.875.256-3.751.369-5.683.8-13.013,1.051-26.083.8-39.125-.171-9.462-.909-19.69-7.1-26.822-8.24-9.518-24.123-15.826-36.2-18.042a40.858,40.858,0,0,0-11.9-.653,50.519,50.519,0,0,0-16.11,5.455c-6,2.983-11.365,5.484-14.206,11.365a81.038,81.038,0,0,0-6.677,21.594,77.878,77.878,0,0,0-.4,21.2c.369,3.438,1.279,6.876,1.591,10.314Q242.487,140.461,242.487,141.4Z" transform="translate(383.206 96.656)" fill="#fff"/>
    <path id="Path_100" data-name="Path 100" d="M298.578,206.114c3.949,1.165,13.07-2.444,16.082-2.983,1.818-.313,3.466-1.222,5.256-1.648,9.007-2.245,10.087-27.589,10.967-34.408,2.33-18.014,5.938-36.681,6.137-54.752A60.631,60.631,0,0,0,334.634,91.7a23.753,23.753,0,0,0-13.524-15.03,6.876,6.876,0,0,0-3.978-.426c-5.512,1.392-6.649,10.456-7.586,14.86-1.421,6.734-3.836,13.7-9.689,17.872-14.206,10.143-38.272,2.614-53.672,0a7.1,7.1,0,0,0-4.148,0,5.2,5.2,0,0,0-2.216,5.881,29.01,29.01,0,0,0,2.841,6.166c3.665,7.387,2.671,16.224,4.773,24.236a44.978,44.978,0,0,0,17.36,23.583,191.848,191.848,0,0,0,25.8,14.888,17.5,17.5,0,0,1,5.427,3.807,12.1,12.1,0,0,1,2.614,8.183c0,1.875-2.387,7.643-1.676,8.978a2.558,2.558,0,0,0,1.62,1.421Z" transform="translate(382.663 109.025)" fill="#020202" opacity="0.1"/>
    <path id="Path_101" data-name="Path 101" d="M251.946,89.866a8.524,8.524,0,0,0,5.541,2.841,30.574,30.574,0,0,0,5.342,0h1.023a1.221,1.221,0,0,1,.71.142,1.165,1.165,0,0,1,.313.8,58.65,58.65,0,0,1,.227,10.712h0l-.171,1.932a3.5,3.5,0,0,0,.171,2.017,3.352,3.352,0,0,0,2.159,1.421,16.564,16.564,0,0,0,4.83.824,21.679,21.679,0,0,0,9.859-3.466,100.635,100.635,0,0,1,.966-18.27c1.136-7.814,3.182-15.627,2.33-23.469a15.258,15.258,0,0,0-3.211-8.524,15.286,15.286,0,0,0-11.621-4.177,29.294,29.294,0,0,0-15.968,4.376c-1.762,1.193-1.96,2.841-2.387,4.717-.6,3.069-1.08,6.194-1.421,9.319s-.625,7.1-.682,10.712a12.132,12.132,0,0,0,1.989,8.1Z" transform="translate(401.592 65.735)" fill="#ffbaa8"/>
    <path id="Path_102" data-name="Path 102" d="M261.011,69.751c4.006.682,8.524,0,12.161,1.534a11.82,11.82,0,0,1,5.683,14.434c1.534.54,1.79-2.216,2.841-3.324s3.836.369,4.035,2.3a11.99,11.99,0,0,1-1.392,5.512,16.081,16.081,0,0,0-.71,10.683c.227.824.852,1.818,1.676,1.591s1.421-1.62,1.932-2.245a21.98,21.98,0,0,1,2.671-2.841c1.847-1.62,3.893-3.04,5.683-4.631,3.381-2.841,6.507-6.677,6.308-11.081a9.633,9.633,0,0,0-1.733-4.972A11.364,11.364,0,0,0,296.9,73.5c-.54-.341-1.165-.71-1.279-1.335a2.557,2.557,0,0,1,.142-1.023,12.019,12.019,0,0,0-5-12.019,29.237,29.237,0,0,0-12.843-4.773c-2.841-.511-5.91-.938-8.865-1.279a19.6,19.6,0,0,1-7.132-1.7,19.238,19.238,0,0,1,2.358-4.546,22.731,22.731,0,0,0-5.967,2.841,9.12,9.12,0,0,1,.8-2.983,18.213,18.213,0,0,0-8.78,5,10.541,10.541,0,0,0-.313,11.905,14.86,14.86,0,0,0,9.888,6.024Z" transform="translate(398.721 54.823)" fill="#ff681c"/>
    <path id="Path_103" data-name="Path 103" d="M254.44,69.05h1.023a1.222,1.222,0,0,1,.71.142,1.165,1.165,0,0,1,.313.8,58.65,58.65,0,0,1,.227,10.712h0A14.405,14.405,0,0,0,266.6,65.47a59.322,59.322,0,0,1-12.075,3.58Z" transform="translate(409.98 89.42)" fill="#e0a091"/>
    <path id="Path_104" data-name="Path 104" d="M218.18,97.713a74.726,74.726,0,0,0,18.383,18.326,36.568,36.568,0,0,0,17.275,6.222,5.682,5.682,0,0,0,2.415-.256,6.62,6.62,0,0,0,3.324-2.3,19.235,19.235,0,0,0,4.432-10.939c.426-10.484-10.939-16.593-10.939-16.593s-25.913-8.268-28.981-6.9c-1.7.71-3.3,4.347-4.4,7.529C218.777,95.412,218.18,97.713,218.18,97.713Z" transform="translate(343.215 125.595)" fill="#fff"/>
    <rect id="Rectangle_55" data-name="Rectangle 55" width="38.897" height="91.575" rx="6.85" transform="translate(693.976 278.932) rotate(-160.47)" fill="#fff"/>
    <path id="Path_105" data-name="Path 105" d="M218.18,92.754a74.726,74.726,0,0,0,18.383,18.326,36.568,36.568,0,0,0,17.275,6.222,5.682,5.682,0,0,0,2.415-.256l1.108.284c7.87,1.591,18.213-4.4,25.4-9.632v-.17l-2.586-15.769a62.025,62.025,0,0,1-16.252,12.019,23.128,23.128,0,0,1-13.894,2.586,13.9,13.9,0,0,1-3.751-1.137A122.632,122.632,0,0,1,219.6,87.81C218.777,90.452,218.18,92.754,218.18,92.754Z" transform="translate(343.215 130.555)" fill="#020202" opacity="0.1"/>
    <path id="Path_106" data-name="Path 106" d="M295.123,105.585,252.276,82.23,235.74,100.954s53.985,54.439,69.9,52.28,9.206-19.037,9.206-19.037S320.837,116.07,295.123,105.585Z" transform="translate(375.548 120.28)" fill="#fff"/>
    <path id="Path_107" data-name="Path 107" d="M232.037,74.309c-4.574.6-9.575,1.875-12.1,5.683A11.818,11.818,0,0,0,218.2,85.02c-.852,7.416,3.495,14.349,7.7,20.514a17.814,17.814,0,0,0,6.563,6.592,16.564,16.564,0,0,0,4.688,1.08,75.1,75.1,0,0,0,35.886-4.745,3.751,3.751,0,0,0,2.841-3.864,24.548,24.548,0,0,0-.142-10.57,29.147,29.147,0,0,0-2.586-5.683c-3.3-6-6.109-15.315-14.206-15.315a208.016,208.016,0,0,0-26.907,1.279Z" transform="translate(343.053 103.284)" fill="#283131"/>
    <path id="Path_108" data-name="Path 108" d="M229.108,76.439a13.1,13.1,0,0,0-9.547,4.489,9.32,9.32,0,0,0-1.335,3.949c-.682,5.853,2.841,11.365,6.052,16.139a13.78,13.78,0,0,0,5.171,5.2,12.5,12.5,0,0,0,3.694.852,59.155,59.155,0,0,0,28.242-3.722,4.091,4.091,0,0,0,1.477-.881,3.864,3.864,0,0,0,.8-2.159,20.031,20.031,0,0,0,0-8.325,21.822,21.822,0,0,0-2.046-4.461c-2.586-4.745-4.8-12.076-11.195-12.076a170.249,170.249,0,0,0-21.31.994Z" transform="translate(343.141 107.745)" fill="url(#linear-gradient)"/>
    <path id="Path_109" data-name="Path 109" d="M257.653,90.056a4.144,4.144,0,0,0-.455-1.25,13.752,13.752,0,0,0-6.052-7.274,14.49,14.49,0,0,0-8.1-.256l-10.712,1.7a3.949,3.949,0,0,0-1.165.341,3.011,3.011,0,0,0-1.023,1.137,8.012,8.012,0,0,0,.909,8.978,9.432,9.432,0,0,1,1.79,2.188,11.109,11.109,0,0,1,.426,3.523,11.081,11.081,0,0,0,7.132,7.956,46.257,46.257,0,0,1,10.058,4.83,17.05,17.05,0,0,0,2.841,2.046,9.916,9.916,0,0,0,5.4.511,3.893,3.893,0,0,0,2.188-.654,3.665,3.665,0,0,0,.938-1.762c1.392-4.234,2.358-6.563.824-10.825-1.307-3.552-4.432-7.643-4.688-11.365a80.269,80.269,0,0,0-.568-13.3c-.341-1.563-1.108-3.353-2.7-3.58a3.04,3.04,0,0,0-2.841,1.392,10.032,10.032,0,0,0-1.222,3.012,6.933,6.933,0,0,1-2.983,4.461" transform="translate(363.467 103.277)" fill="#ffbaa8"/>
    <path id="Path_110" data-name="Path 110" d="M236.309,93.293a13.7,13.7,0,0,1,.511,4.262,4.489,4.489,0,0,1-2.159,3.523c-1.762.881-4.091,0-5.683,1.137a8.1,8.1,0,0,0-2.188,2.841,3.21,3.21,0,0,1-2.841,1.79,3.381,3.381,0,0,1-1.591-.881,19.15,19.15,0,0,1-5.683-11.195,47.849,47.849,0,0,1,0-14.661c.653-4.518,2.245-3.921,5.313-1.79s7.5,2.245,10.285,5.086A20.486,20.486,0,0,1,236.309,93.293Z" transform="translate(339.406 110.099)" fill="#ffbaa8"/>
    <path id="Path_111" data-name="Path 111" d="M235.659,121.166,221.14,48.06l16.849,73.106S239.495,122.644,235.659,121.166Z" transform="translate(348.665 57.364)" fill="#fff"/>
    <circle id="Ellipse_1" data-name="Ellipse 1" cx="4.262" cy="4.262" r="4.262" transform="translate(565.543 102.781)" fill="#ff681c"/>
    <path id="Path_112" data-name="Path 112" d="M111.34,71.446s34.777-10.8,40.63-7.814,3.864,12.445,3.864,12.445h4.205s-2.557-10.03,2.074-11.848,12.615-1.932,15.769.313,1.648,11.536,1.648,11.536h3.58S182.656,65.735,184.162,65s16.622,2.841,27.22,9.888c7.444,4.972-13.581-11-26.651-20.855a28.129,28.129,0,0,0-21.338-5.313h0a54.354,54.354,0,0,0-15.57,4.915Z" transform="translate(146.492 57.929)" fill="#283131"/>
    <path id="Path_113" data-name="Path 113" d="M233.446,113.949l-3.125,1.818-2.273,1.307s-36.227-27.9-53.558-29.237c-10.541-.824-41.6,11-55.945,16.735h0c-4.574,1.847-7.444,3.069-7.444,3.069l-1.79-7.188S143.6,82.467,149.855,75.108a4.32,4.32,0,0,0,.824-1.193C153.52,67.607,121.1,33.853,121.1,33.853l1.222-2.444.483-.909,3.523,2.33h0c9.547,6.308,34.948,23.1,37.335,24.577,2.841,1.79,9.66,4.035,24.066,2.841,12.189-.966,47.45-16.224,47.45-16.224l2.444,1.392,4.319,2.444S206.4,62.919,198.754,71.727a5.683,5.683,0,0,0-.171,6.024h0C203.811,90.679,233.446,113.949,233.446,113.949Z" transform="translate(142.754 25.03)" fill="#fff"/>
    <path id="Path_114" data-name="Path 114" d="M133.753,37.705S99.573,55.861,99,60.066s35.289-14.405,38.073-14.206a20.23,20.23,0,0,0,8.041-.739c1.108-.625,1.7-2.131,2.841-3.608s30.43-15.6,29.521-17.559S140,35.8,140,35.8A6.9,6.9,0,0,0,133.753,37.705Z" transform="translate(123.766 12.626)" fill="#283131"/>
    <path id="Path_115" data-name="Path 115" d="M183.27,47.443s30.771,23.469,30.544,27.674-32.476-19.889-35.289-20.088a20.173,20.173,0,0,1-7.814-2.046c-.995-.8-1.335-2.358-2.273-4.035s-27.5-20.344-26.282-22.134S177.417,44.6,177.417,44.6,181.792,44.6,183.27,47.443Z" transform="translate(203.158 18.032)" fill="#283131"/>
    <path id="Path_116" data-name="Path 116" d="M183.243,76.194s34.1-18.127,34.664-22.333-35.317,14.405-38.1,14.206a20.343,20.343,0,0,0-8.041.739c-1.108.625-1.7,2.1-2.841,3.608s-30.459,15.6-29.549,17.559,37.647-11.848,37.647-11.848A6.9,6.9,0,0,0,183.243,76.194Z" transform="translate(198.071 66.906)" fill="#283131"/>
    <path id="Path_117" data-name="Path 117" d="M127.915,74.853s-30.8-23.469-30.544-27.674S129.847,67.068,132.66,67.3a19.719,19.719,0,0,1,7.785,2.017c.994.8,1.364,2.387,2.3,4.035s27.475,20.372,26.282,22.134S133.74,77.808,133.74,77.808,129.392,77.837,127.915,74.853Z" transform="translate(120.768 54.835)" fill="#283131"/>
    <path id="Path_118" data-name="Path 118" d="M142.184,74.519a4.318,4.318,0,0,0,.824-1.193c2.841-6.308-29.578-40.062-29.578-40.062l1.222-2.444,4.006,1.421h0c1.648,1.648,28.242,28.015,30.317,33.129C150.566,69.064,145.537,72.644,142.184,74.519Z" transform="translate(150.34 25.62)" fill="#283131" opacity="0.33"/>
    <path id="Path_119" data-name="Path 119" d="M186.63,38.254S151.086,53.312,143.442,62.12a5.683,5.683,0,0,0-.17,6.024c-.54-.426-7.984-6.478-.8-12.786S177.4,37.8,182.255,35.81Z" transform="translate(198.094 34.808)" fill="#283131" opacity="0.33"/>
    <path id="Path_120" data-name="Path 120" d="M224.316,84.012l-2.273,1.307s-36.226-27.9-53.558-29.237c-10.541-.824-41.6,11-55.945,16.735h0V69.18s41.852-21.992,50.944-21.423,14.008.369,29.663,12.53C206.928,71.2,221.191,81.682,224.316,84.012Z" transform="translate(148.701 56.786)" fill="#283131" opacity="0.33"/>
    <rect id="Rectangle_56" data-name="Rectangle 56" width="35.175" height="6.734" transform="translate(298.093 131.819)" fill="#283131"/>
  </g>
</svg>
