<svg xmlns="http://www.w3.org/2000/svg" xmlns:xlink="http://www.w3.org/1999/xlink" width="528.949" height="431.772" viewBox="0 0 528.949 431.772">
  <defs>
    <linearGradient id="linear-gradient" x1="0.064" y1="0.391" x2="0.697" y2="0.661" gradientUnits="objectBoundingBox">
      <stop offset="0.01"/>
      <stop offset="0.12" stop-opacity="0.749"/>
      <stop offset="1" stop-opacity="0"/>
    </linearGradient>
    <linearGradient id="linear-gradient-2" x1="0.577" y1="1.099" x2="0.407" y2="0.086" xlink:href="#linear-gradient"/>
    <linearGradient id="linear-gradient-3" x1="0.321" y1="1.057" x2="0.582" y2="0.316" xlink:href="#linear-gradient"/>
    <linearGradient id="linear-gradient-4" x1="0.624" y1="-0.69" x2="0.405" y2="1.412" xlink:href="#linear-gradient"/>
    <linearGradient id="linear-gradient-5" x1="0.297" y1="-0.591" x2="0.832" y2="2.285" xlink:href="#linear-gradient"/>
    <linearGradient id="linear-gradient-6" x1="0.498" y1="1.471" x2="0.502" y2="-0.617" xlink:href="#linear-gradient"/>
    <linearGradient id="linear-gradient-7" x1="0.482" y1="1.326" x2="0.516" y2="-0.132" xlink:href="#linear-gradient"/>
  </defs>
  <g id="web_developer_1_" data-name="web_developer (1)" transform="translate(0.002 -0.006)">
    <path id="Path_50" data-name="Path 50" d="M523.524,314.661c-.351,10.093-2.663,20.367-8.313,28.732-7.118,10.534-18.678,17.055-29.875,23.186L453.59,384.049c-13.911,7.664-28.576,15.509-44.436,15.73-11.223.169-22.082-3.533-32.876-6.637-50.411-14.548-103.511-16.587-155.624-12.911-26.693,1.883-53.256,5.2-79.7,9.183-21.159,3.143-46.553,13.6-65.634,1.221-20.783-13.509-33.538-35.383-45.28-56.62C19.815,315.583,9.45,296.7,6.073,275.9c-5.2-32.135,7.248-65.141,26.719-91.249A209.317,209.317,0,0,1,51.924,162.57V280.551a11.69,11.69,0,0,0,11.626,11.69H521.406A91.144,91.144,0,0,1,523.524,314.661Z" transform="translate(-4.89 31.994)" fill="#283131" opacity="0.18"/>
    <path id="Path_51" data-name="Path 51" d="M300.643,28.781H178.22A73.544,73.544,0,0,1,193.132,20c9.677-4.221,20.224-6.1,30.745-6.858C250.349,11.233,276.9,17.078,300.643,28.781Z" transform="translate(46.922 -12.78)" fill="#283131" opacity="0.18"/>
    <path id="Path_52" data-name="Path 52" d="M197.261,244.341a18.99,18.99,0,0,0,4.247,4.1,19.848,19.848,0,0,0,7.794,2.312l41.462,6.248a2.4,2.4,0,0,1,1.156.39,2.364,2.364,0,0,1,.61,1.87,72.959,72.959,0,0,1-3.1,22.939,3.169,3.169,0,0,1-.844,1.611,3.325,3.325,0,0,1-1.9.572c-13.95,1.182-27.966.805-41.955.429a28.575,28.575,0,0,1-6.988-.766c-3.9-1.091-7.079-3.754-10.015-6.495-6.3-5.858-31.8-29.408-33.343-32.6a87.276,87.276,0,0,1-4.936-14.184c-1.3-4.676,8.2-5.261,8-10.119a31.394,31.394,0,0,1,1.2-9.95,16.99,16.99,0,0,1,4.157-7.69c1.429-1.3-.779-10.106,1.2-10.209,2.286,7.794,12.626,23.381,17.12,30.057a251.57,251.57,0,0,0,16.146,21.484Z" transform="translate(38.285 41.03)" fill="#283131"/>
    <path id="Path_53" data-name="Path 53" d="M197.261,244.341a18.99,18.99,0,0,0,4.247,4.1,19.848,19.848,0,0,0,7.794,2.312l41.462,6.248a2.4,2.4,0,0,1,1.156.39,2.364,2.364,0,0,1,.61,1.87,72.959,72.959,0,0,1-3.1,22.939,3.169,3.169,0,0,1-.844,1.611,3.325,3.325,0,0,1-1.9.572c-13.95,1.182-27.966.805-41.955.429a28.575,28.575,0,0,1-6.988-.766c-3.9-1.091-7.079-3.754-10.015-6.495-6.3-5.858-31.8-29.408-33.343-32.6a87.276,87.276,0,0,1-4.936-14.184c-1.3-4.676,8.2-5.261,8-10.119a31.394,31.394,0,0,1,1.2-9.95,16.99,16.99,0,0,1,4.157-7.69c1.429-1.3-.779-10.106,1.2-10.209,2.286,7.794,12.626,23.381,17.12,30.057a251.57,251.57,0,0,0,16.146,21.484Z" transform="translate(38.285 41.03)" fill="url(#linear-gradient)"/>
    <path id="Path_54" data-name="Path 54" d="M113.886,183.466a76.041,76.041,0,0,0-7.794,8.053c-5.741,7.053-9.56,15.444-13.119,23.809C83.5,237.592,75.256,261.4,77.711,285.47a9.093,9.093,0,0,0,1.143,4.131,8.04,8.04,0,0,0,4.455,2.871c4.559,1.455,9.43,1.52,14.288,1.559,18.717.169,37.461.338,56.165-.572,2.9-.143,5.962-.364,8.365-2a13.56,13.56,0,0,0,4.079-5.1c5.027-9.456,6.495-20.393,10.391-30.343,5.2-12.989,19.484-24.8,16.47-38.487C180.183,159.4,119.783,178.1,113.886,183.466Z" transform="translate(16.747 36.102)" fill="#283131"/>
    <path id="Path_55" data-name="Path 55" d="M113.886,183.466a76.041,76.041,0,0,0-7.794,8.053c-5.741,7.053-9.56,15.444-13.119,23.809C83.5,237.592,75.256,261.4,77.711,285.47a9.093,9.093,0,0,0,1.143,4.131,8.04,8.04,0,0,0,4.455,2.871c4.559,1.455,9.43,1.52,14.288,1.559,18.717.169,37.461.338,56.165-.572,2.9-.143,5.962-.364,8.365-2a13.56,13.56,0,0,0,4.079-5.1c5.027-9.456,6.495-20.393,10.391-30.343,5.2-12.989,19.484-24.8,16.47-38.487C180.183,159.4,119.783,178.1,113.886,183.466Z" transform="translate(16.747 36.102)" fill="url(#linear-gradient-2)"/>
    <path id="Path_56" data-name="Path 56" d="M184.821,151.334c-2.2,10.664-4.494,21.614-10.391,30.8a23.848,23.848,0,0,1-9,8.859c-3.806,1.909-8.638,2.169-12.2-.169-1.78-1.156-3.728-2.975-5.663-2.117-1.4.636-1.857,2.377-2.052,3.9a39.226,39.226,0,0,0,.156,11.236,9.5,9.5,0,0,1,.182,3.2,5.274,5.274,0,0,1-4.221,3.9,10.067,10.067,0,0,1-5.884-.922,19.016,19.016,0,0,1-10.963-14.054,45.541,45.541,0,0,1-.39-6.235c-.247-9.248-1.715-18.458-1.416-27.693s2.6-18.847,8.872-25.667a40.423,40.423,0,0,1,12.677-8.781c7.079-3.377,14.977-5.754,22.718-4.52a21.588,21.588,0,0,1,15.029,10.028C186.328,139.306,186.341,143.943,184.821,151.334Z" transform="translate(30.398 20.083)" fill="#ffdad2"/>
    <path id="Path_57" data-name="Path 57" d="M207.382,134.079a21.5,21.5,0,0,0-11.366-21.64c-3.442-1.715-7.274-2.442-10.989-3.429-8.7-2.338-17.055-6.209-25.978-7.04s-19.185,2.3-23.16,10.391c-.727,1.481-1.442,3.273-3.039,3.663a6.663,6.663,0,0,1-2.6-.234c-5.962-1.052-11.327,4.04-14.015,9.456-4.338,8.768-4.559,18.99-3.611,28.719.87,9,3.169,18.73,10.391,24.212.714.546,1.767,1.039,2.455.455a2.052,2.052,0,0,0,.559-1.208,39.485,39.485,0,0,0,.805-10.391c-.143-2.6-.559-5.352.117-7.91s2.845-4.988,5.494-4.91c2.455,0,4.429,2.286,5.04,4.676a17.25,17.25,0,0,1-.273,7.326c.39.974,1.754-.195,1.987-1.208,1.793-8.157,2.2-17.289,7.858-23.381a10.041,10.041,0,0,1,2.442,4.247,6.5,6.5,0,0,1,6.689-1.663,15.9,15.9,0,0,1,4.468,2.923C174.454,157.9,204.485,154.706,207.382,134.079Z" transform="translate(27.178 13.84)" fill="#3f3d56"/>
    <path id="Path_58" data-name="Path 58" d="M110.045,192.569c-4.364,3.169-6.495,8.742-6.624,14.119s5.559,39.5,10.924,49.19c4.157,7.534,12.82,27.2,25.978,32.629,3.9,1.611,61.5.935,88.236-1.961-.169-6.326-.481-12.651-.9-18.977a3.6,3.6,0,0,0-.714-2.325c-.675-.7-1.637-5.287-2.6-5.287-15.587.065-31.3,4.832-46.891,5.2a27.433,27.433,0,0,1-6.767-.4,19.483,19.483,0,0,1-5.2-2.13c-12.028-6.806-18.679-20.172-23.381-33.174-3.6-10.028-6.495-20.406-11.69-29.771-1.844-3.338-3.494-6.586-7.131-8.053C119.021,189.893,114.007,189.7,110.045,192.569Z" transform="translate(24.563 40.3)" fill="#283131"/>
    <path id="Path_59" data-name="Path 59" d="M110.045,192.569c-4.364,3.169-6.495,8.742-6.624,14.119s5.559,39.5,10.924,49.19c4.157,7.534,12.82,27.2,25.978,32.629,3.9,1.611,61.5.935,88.236-1.961-.169-6.326-.481-12.651-.9-18.977a3.6,3.6,0,0,0-.714-2.325c-.675-.7-1.637-5.287-2.6-5.287-15.587.065-31.3,4.832-46.891,5.2a27.433,27.433,0,0,1-6.767-.4,19.483,19.483,0,0,1-5.2-2.13c-12.028-6.806-18.679-20.172-23.381-33.174-3.6-10.028-6.495-20.406-11.69-29.771-1.844-3.338-3.494-6.586-7.131-8.053C119.021,189.893,114.007,189.7,110.045,192.569Z" transform="translate(24.563 40.3)" fill="url(#linear-gradient-3)"/>
    <path id="Path_60" data-name="Path 60" d="M202.054,243.038c8.092-.766,17.081,1.039,22.212,7.339a3.9,3.9,0,0,1,1.013,2.078,3.481,3.481,0,0,1-.623,1.961c-3.027,5.027-9.6,6.222-15.119,8.209a39.254,39.254,0,0,0-8.17,4.053,12.99,12.99,0,0,1-4.884,2.416c-3.9.585-7.131-2.9-8.9-6.378-2.026-3.9-5.2-11.9-1.3-15.587C189.467,244.207,198.053,243.4,202.054,243.038Z" transform="translate(48.781 55.998)" fill="#ffdad2"/>
    <path id="Path_61" data-name="Path 61" d="M258.045,242.635a11.08,11.08,0,0,1,3.624,3.312,4.767,4.767,0,0,1,.338,4.715,6.56,6.56,0,0,1-2.429,2.182c-7.183,4.273-15.99,5.04-23.264,9.092a12.639,12.639,0,0,1-5.014,2.182,6.923,6.923,0,0,1-5.559-2.6,17.666,17.666,0,0,1-3-5.546C214.232,233.634,245.809,234.842,258.045,242.635Z" transform="translate(59.801 54.4)" fill="#ffdad2"/>
    <path id="Path_62" data-name="Path 62" d="M86.23,221h33.655v27.641a9.742,9.742,0,0,1-9.742,9.742H95.972a9.742,9.742,0,0,1-9.742-9.742Z" transform="translate(25.776 66.06)" fill="#fff"/>
    <path id="Path_63" data-name="Path 63" d="M110.39,226.16h10.2a8.118,8.118,0,0,1,8.118,8.118v3.364a8.118,8.118,0,0,1-8.118,8.118h-10.2Z" transform="translate(32.998 67.602)" fill="none" stroke="#fff" stroke-miterlimit="10" stroke-width="3.3"/>
    <rect id="Rectangle_29" data-name="Rectangle 29" width="470.339" height="14.431" rx="5.56" transform="translate(58.608 323.845)" fill="#283131"/>
    <rect id="Rectangle_30" data-name="Rectangle 30" width="257.693" height="89.379" transform="translate(180.226 338.497)" fill="#283131"/>
    <rect id="Rectangle_31" data-name="Rectangle 31" width="101.225" height="89.379" transform="translate(80.754 338.497)" fill="#283131"/>
    <rect id="Rectangle_32" data-name="Rectangle 32" width="256.004" height="89.379" transform="translate(181.927 338.497)" fill="url(#linear-gradient-4)"/>
    <rect id="Rectangle_33" data-name="Rectangle 33" width="101.225" height="89.379" transform="translate(80.754 338.497)" fill="url(#linear-gradient-5)"/>
    <rect id="Rectangle_34" data-name="Rectangle 34" width="183.771" height="16.938" rx="6.52" transform="translate(429.995 323.598) rotate(180)" fill="#283131"/>
    <rect id="Rectangle_35" data-name="Rectangle 35" width="183.771" height="16.938" rx="6.52" transform="translate(429.995 323.598) rotate(180)" fill="url(#linear-gradient-6)"/>
    <path id="Path_65" data-name="Path 65" d="M245.51,284.005H373.545l33.772-85.638a7.534,7.534,0,0,0-7-10.287H299.844a24.264,24.264,0,0,0-22.523,15.353Z" transform="translate(67.037 39.619)" fill="#283131"/>
    <path id="Path_66" data-name="Path 66" d="M250.52,282.969h121.6l32.07-81.351a7.144,7.144,0,0,0-6.65-9.768H302.126a23.03,23.03,0,0,0-21.432,14.574Z" transform="translate(68.534 40.746)" fill="#283131"/>
    <path id="Path_67" data-name="Path 67" d="M250.52,282.969h121.6l32.07-81.351a7.144,7.144,0,0,0-6.65-9.768H302.126a23.03,23.03,0,0,0-21.432,14.574Z" transform="translate(68.534 40.746)" fill="url(#linear-gradient-7)"/>
    <rect id="Rectangle_36" data-name="Rectangle 36" width="180.03" height="10.132" transform="translate(276.697 200.824)" fill="#fff" opacity="0.51"/>
    <rect id="Rectangle_37" data-name="Rectangle 37" width="127.983" height="10.132" transform="translate(276.697 183.484)" fill="#fff"/>
    <rect id="Rectangle_38" data-name="Rectangle 38" width="85.677" height="10.132" transform="translate(422.176 183.484)" fill="#f0a500"/>
    <rect id="Rectangle_39" data-name="Rectangle 39" width="131.724" height="9.002" transform="translate(375.83 119.343)" fill="#fff"/>
    <rect id="Rectangle_40" data-name="Rectangle 40" width="140.92" height="9.002" transform="translate(348.241 135.333)" fill="#fff" opacity="0.51"/>
    <rect id="Rectangle_41" data-name="Rectangle 41" width="86.638" height="9.002" transform="translate(279.139 119.343)" fill="#fff"/>
    <rect id="Rectangle_42" data-name="Rectangle 42" width="190.409" height="9.002" transform="translate(317.145 150.842)" fill="#1d87a1"/>
    <rect id="Rectangle_43" data-name="Rectangle 43" width="27.953" height="9.002" transform="translate(279.139 150.842)" fill="#fff" opacity="0.51"/>
    <rect id="Rectangle_44" data-name="Rectangle 44" width="125.684" height="9.002" transform="translate(381.87 166.832)" fill="#fff" opacity="0.51"/>
    <rect id="Rectangle_45" data-name="Rectangle 45" width="86.638" height="9.002" transform="translate(279.139 166.832)" fill="#fff"/>
    <rect id="Rectangle_46" data-name="Rectangle 46" width="55.711" height="9.002" transform="translate(279.139 134.956)" fill="#fff"/>
    <rect id="Rectangle_47" data-name="Rectangle 47" width="131.724" height="9.002" transform="translate(327.653 89.039)" fill="#fff"/>
    <rect id="Rectangle_48" data-name="Rectangle 48" width="140.92" height="9.002" transform="translate(300.064 105.029)" fill="#fff" opacity="0.51"/>
    <rect id="Rectangle_49" data-name="Rectangle 49" width="86.638" height="9.002" transform="translate(230.975 89.039)" fill="#cf146b"/>
    <rect id="Rectangle_50" data-name="Rectangle 50" width="131.724" height="9.002" transform="translate(326.484 70.4)" fill="#fff"/>
    <rect id="Rectangle_51" data-name="Rectangle 51" width="86.638" height="9.002" transform="translate(229.806 53.488)" fill="#fff"/>
    <rect id="Rectangle_52" data-name="Rectangle 52" width="86.638" height="9.002" transform="translate(229.806 38.057)" fill="#f0a500"/>
    <rect id="Rectangle_53" data-name="Rectangle 53" width="55.711" height="9.002" transform="translate(230.975 104.652)" fill="#fff"/>
  </g>
</svg>
