<svg xmlns="http://www.w3.org/2000/svg" width="30" height="38" viewBox="0 0 34.355 34.443">
  <g id="tech" transform="translate(-0.373 -0.001)">
    <path id="Path_80" data-name="Path 80" d="M139.682,16.512a2.859,2.859,0,0,1,3.311.521l1.159-1.159a8.167,8.167,0,0,0,10.767-9.021.744.744,0,0,0-1.26-.407l-1.722,1.722a3.59,3.59,0,1,1-5.077-5.077l1.722-1.722a.744.744,0,0,0-.407-1.26A8.165,8.165,0,0,0,139.2,11l-2.515,2.515Z" transform="translate(-120.297 0)" fill="#fff"/>
    <path id="Path_81" data-name="Path 81" d="M14.8,156.894l-2.983-2.983L1.39,164.341A3.473,3.473,0,1,0,6.3,169.252l8.991-8.991A2.86,2.86,0,0,1,14.8,156.894Z" transform="translate(0 -135.825)" fill="#fff"/>
    <path id="Path_82" data-name="Path 82" d="M21.685,34.042a1.092,1.092,0,0,0-1.545,0l-.623.623L8.426,23.574l.518-.518A1.093,1.093,0,0,0,8.82,21.4L4.294,18.071a1.092,1.092,0,0,0-1.42.107L.953,20.1a1.092,1.092,0,0,0-.107,1.42l3.333,4.525a1.092,1.092,0,0,0,1.652.125l.518-.519L17.44,36.742l-.666.666a1.092,1.092,0,0,0,0,1.545L27.005,49.185a3.473,3.473,0,0,0,4.911-4.911Z" transform="translate(-0.23 -15.758)" fill="#fff"/>
  </g>
</svg>
