<svg xmlns="http://www.w3.org/2000/svg" width="30" height="38.004" viewBox="0 0 43.24 38.004">
  <g id="works" transform="translate(0)">
    <path id="Path_77" data-name="Path 77" d="M211,240h7.6v2.534H211Zm0,0" transform="translate(-193.18 -219.731)" fill="#fff"/>
    <path id="Path_78" data-name="Path 78" d="M35.08,93.675H27.954v1.267a1.266,1.266,0,0,1-1.267,1.267H16.553a1.266,1.266,0,0,1-1.267-1.267V93.675H8.16a3.8,3.8,0,0,1-3.605-2.6L0,77.41v27.666a3.8,3.8,0,0,0,3.8,3.8H39.44a3.8,3.8,0,0,0,3.8-3.8V77.411L38.685,91.077a3.8,3.8,0,0,1-3.6,2.6Zm0,0" transform="translate(0 -70.873)" fill="#fff"/>
    <path id="Path_79" data-name="Path 79" d="M50.317,0H40.182a3.8,3.8,0,0,0-3.8,3.8V5.067H25.809L30.587,19.4a1.267,1.267,0,0,0,1.2.866h7.126V19a1.266,1.266,0,0,1,1.267-1.267H50.317A1.266,1.266,0,0,1,51.583,19v1.267h7.126a1.267,1.267,0,0,0,1.2-.866L64.69,5.067H54.117V3.8a3.8,3.8,0,0,0-3.8-3.8Zm-11.4,5.067V3.8a1.268,1.268,0,0,1,1.267-1.267H50.317A1.268,1.268,0,0,1,51.583,3.8V5.067Zm0,0" transform="translate(-23.629)" fill="#fff"/>
  </g>
</svg>
